Amstelvar-Italic-opsz144-wght100-wdth100.ufo
<glyph name="dollar" format="2">
  <advance width="876"/>
  <unicode hex="0024"/>
  <outline>
    <contour>
      <point x="-13" y="164" type="qcurve"/>
      <point x="-3" y="175" type="line"/>
      <point x="31" y="118"/>
      <point x="242" y="6"/>
      <point x="365" y="7" type="qcurve" smooth="yes"/>
      <point x="563" y="9"/>
      <point x="758" y="212"/>
      <point x="756" y="352" type="qcurve" smooth="yes"/>
      <point x="755" y="483"/>
      <point x="590" y="670"/>
      <point x="472" y="759" type="qcurve" smooth="yes"/>
      <point x="368" y="838"/>
      <point x="174" y="1055"/>
      <point x="174" y="1193" type="qcurve" smooth="yes"/>
      <point x="174" y="1348"/>
      <point x="374" y="1520"/>
      <point x="542" y="1520" type="qcurve" smooth="yes"/>
      <point x="678" y="1520"/>
      <point x="852" y="1409"/>
      <point x="886" y="1338" type="qcurve"/>
      <point x="874" y="1332" type="line"/>
      <point x="838" y="1401"/>
      <point x="677" y="1499"/>
      <point x="542" y="1499" type="qcurve" smooth="yes"/>
      <point x="386" y="1499"/>
      <point x="210" y="1352"/>
      <point x="210" y="1236" type="qcurve" smooth="yes"/>
      <point x="210" y="1126"/>
      <point x="378" y="924"/>
      <point x="499" y="835" type="qcurve" smooth="yes"/>
      <point x="646" y="728"/>
      <point x="812" y="524"/>
      <point x="812" y="373" type="qcurve" smooth="yes"/>
      <point x="812" y="224"/>
      <point x="596" y="-13"/>
      <point x="357" y="-13" type="qcurve" smooth="yes"/>
      <point x="233" y="-13"/>
      <point x="31" y="95"/>
    </contour>
    <contour>
      <point x="287" y="-162" type="line"/>
      <point x="318" y="5" type="line"/>
      <point x="318" y="5" type="line"/>
      <point x="462" y="811" type="line"/>
      <point x="476" y="802" type="line"/>
      <point x="334" y="5" type="line"/>
      <point x="334" y="5" type="line"/>
      <point x="303" y="-158" type="line"/>
    </contour>
    <contour>
      <point x="606" y="1594" type="line"/>
      <point x="623" y="1597" type="line"/>
      <point x="605" y="1506" type="line"/>
      <point x="605" y="1506" type="line"/>
      <point x="476" y="802" type="line"/>
      <point x="462" y="811" type="line"/>
      <point x="589" y="1506" type="line"/>
      <point x="589" y="1506" type="line"/>
    </contour>
  </outline>
</glyph>
<glyph name="percent" format="2">
  <advance width="1659"/>
  <unicode hex="0025"/>
  <outline>
    <contour>
      <point x="183" y="1071" type="qcurve" smooth="yes"/>
      <point x="221" y="1260"/>
      <point x="471" y="1529"/>
      <point x="658" y="1529" type="qcurve" smooth="yes"/>
      <point x="772" y="1529"/>
      <point x="903" y="1278"/>
      <point x="865" y="1072" type="qcurve" smooth="yes"/>
      <point x="829" y="876"/>
      <point x="585" y="609"/>
      <point x="416" y="609" type="qcurve" smooth="yes"/>
      <point x="282" y="609"/>
      <point x="141" y="864"/>
    </contour>
    <contour>
      <point x="252" y="1075" type="qcurve" smooth="yes"/>
      <point x="203" y="852"/>
      <point x="303" y="623"/>
      <point x="423" y="623" type="qcurve" smooth="yes"/>
      <point x="543" y="622"/>
      <point x="750" y="851"/>
      <point x="797" y="1074" type="qcurve" smooth="yes"/>
      <point x="839" y="1273"/>
      <point x="751" y="1513"/>
      <point x="623" y="1513" type="qcurve" smooth="yes"/>
      <point x="501" y="1514"/>
      <point x="298" y="1278"/>
    </contour>
    <contour>
      <point x="352" y="10" type="line"/>
      <point x="1393" y="1528" type="line"/>
      <point x="1408" y="1519" type="line"/>
      <point x="365" y="-2" type="line"/>
    </contour>
    <contour>
      <point x="895" y="448" type="qcurve" smooth="yes"/>
      <point x="933" y="637"/>
      <point x="1183" y="906"/>
      <point x="1370" y="906" type="qcurve" smooth="yes"/>
      <point x="1484" y="906"/>
      <point x="1615" y="655"/>
      <point x="1577" y="449" type="qcurve" smooth="yes"/>
      <point x="1541" y="253"/>
      <point x="1297" y="-14"/>
      <point x="1128" y="-14" type="qcurve" smooth="yes"/>
      <point x="994" y="-14"/>
      <point x="853" y="241"/>
    </contour>
    <contour>
      <point x="964" y="452" type="qcurve" smooth="yes"/>
      <point x="915" y="229"/>
      <point x="1016" y="1"/>
      <point x="1135" y="1" type="qcurve" smooth="yes"/>
      <point x="1255" y="0"/>
      <point x="1463" y="228"/>
      <point x="1509" y="451" type="qcurve" smooth="yes"/>
      <point x="1551" y="651"/>
      <point x="1463" y="890"/>
      <point x="1335" y="890" type="qcurve" smooth="yes"/>
      <point x="1213" y="891"/>
      <point x="1010" y="656"/>
    </contour>
  </outline>
</glyph>
<glyph name="plus" format="2">
  <advance width="879"/>
  <unicode hex="002B"/>
  <outline>
    <contour>
      <point x="65" y="621" type="line"/>
      <point x="65" y="643" type="line"/>
      <point x="806" y="643" type="line"/>
      <point x="806" y="621" type="line"/>
    </contour>
    <contour>
      <point x="422" y="261" type="line"/>
      <point x="422" y="1003" type="line"/>
      <point x="448" y="1003" type="line"/>
      <point x="448" y="261" type="line"/>
    </contour>
  </outline>
</glyph>
<glyph name="period" format="2">
  <advance width="427"/>
  <unicode hex="002E"/>
  <outline>
    <contour>
      <point x="15" y="56" type="qcurve" smooth="yes"/>
      <point x="15" y="80"/>
      <point x="49" y="115"/>
      <point x="75" y="115" type="qcurve" smooth="yes"/>
      <point x="102" y="115"/>
      <point x="136" y="80"/>
      <point x="136" y="56" type="qcurve" smooth="yes"/>
      <point x="136" y="30"/>
      <point x="102" y="-5"/>
      <point x="75" y="-5" type="qcurve" smooth="yes"/>
      <point x="49" y="-5"/>
      <point x="15" y="30"/>
    </contour>
  </outline>
</glyph>
<glyph name="equal" format="2">
  <advance width="879"/>
  <unicode hex="003D"/>
  <outline>
    <contour>
      <point x="98" y="493" type="line"/>
      <point x="98" y="514" type="line"/>
      <point x="434" y="521" type="line"/>
      <point x="773" y="514" type="line"/>
      <point x="773" y="493" type="line"/>
      <point x="434" y="486" type="line"/>
    </contour>
    <contour>
      <point x="148" y="709" type="line"/>
      <point x="148" y="730" type="line"/>
      <point x="484" y="737" type="line"/>
      <point x="823" y="730" type="line"/>
      <point x="823" y="709" type="line"/>
      <point x="484" y="702" type="line"/>
    </contour>
  </outline>
</glyph>
<glyph name="greater" format="2">
  <advance width="879"/>
  <unicode hex="003E"/>
  <outline>
    <contour>
      <point x="786" y="632" type="qcurve"/>
      <point x="759" y="609"/>
      <point x="298" y="311"/>
      <point x="229" y="271" type="qcurve" smooth="yes"/>
      <point x="220" y="266"/>
      <point x="205" y="292"/>
      <point x="212" y="296" type="qcurve" smooth="yes"/>
      <point x="317" y="361"/>
      <point x="726" y="622"/>
      <point x="737" y="628" type="qcurve"/>
      <point x="727" y="635"/>
      <point x="349" y="883"/>
      <point x="263" y="940" type="qcurve" smooth="yes"/>
      <point x="253" y="946"/>
      <point x="265" y="967"/>
      <point x="274" y="962" type="qcurve" smooth="yes"/>
      <point x="370" y="905"/>
      <point x="753" y="662"/>
    </contour>
  </outline>
</glyph>
<glyph name="question" format="2">
  <advance width="934"/>
  <unicode hex="003F"/>
  <outline>
    <contour>
      <point x="221" y="1324" type="qcurve" smooth="yes"/>
      <point x="234" y="1405"/>
      <point x="431" y="1521"/>
      <point x="584" y="1521" type="qcurve" smooth="yes"/>
      <point x="745" y="1521"/>
      <point x="917" y="1357"/>
      <point x="917" y="1233" type="qcurve" smooth="yes"/>
      <point x="917" y="1098"/>
      <point x="757" y="898"/>
      <point x="610" y="801" type="qcurve" smooth="yes"/>
      <point x="461" y="703"/>
      <point x="324" y="578"/>
      <point x="300" y="503" type="qcurve" smooth="yes"/>
      <point x="270" y="406" type="line"/>
      <point x="253" y="406" type="line"/>
      <point x="271" y="502" type="line" smooth="yes"/>
      <point x="285" y="576"/>
      <point x="397" y="735"/>
      <point x="588" y="862" type="qcurve" smooth="yes"/>
      <point x="708" y="942"/>
      <point x="871" y="1117"/>
      <point x="871" y="1239" type="qcurve" smooth="yes"/>
      <point x="871" y="1340"/>
      <point x="720" y="1506"/>
      <point x="585" y="1506" type="qcurve" smooth="yes"/>
      <point x="443" y="1506"/>
      <point x="309" y="1418"/>
      <point x="300" y="1356" type="qcurve" smooth="yes"/>
      <point x="297" y="1338"/>
      <point x="332" y="1299"/>
      <point x="335" y="1271" type="qcurve" smooth="yes"/>
      <point x="337" y="1248"/>
      <point x="306" y="1218"/>
      <point x="276" y="1218" type="qcurve" smooth="yes"/>
      <point x="252" y="1218"/>
      <point x="214" y="1273"/>
    </contour>
    <contour>
      <point x="175" y="56" type="qcurve" smooth="yes"/>
      <point x="175" y="80"/>
      <point x="209" y="115"/>
      <point x="235" y="115" type="qcurve" smooth="yes"/>
      <point x="262" y="115"/>
      <point x="296" y="80"/>
      <point x="296" y="56" type="qcurve" smooth="yes"/>
      <point x="296" y="30"/>
      <point x="262" y="-5"/>
      <point x="235" y="-5" type="qcurve" smooth="yes"/>
      <point x="209" y="-5"/>
      <point x="175" y="30"/>
    </contour>
  </outline>
</glyph>
<glyph name="C" format="2">
  <advance width="1105"/>
  <unicode hex="0043"/>
  <outline>
    <contour>
      <point x="93" y="754" type="qcurve" smooth="yes"/>
      <point x="170" y="1120"/>
      <point x="616" y="1542"/>
      <point x="886" y="1525" type="qcurve" smooth="yes"/>
      <point x="952" y="1521"/>
      <point x="1111" y="1459"/>
      <point x="1156" y="1416" type="qcurve"/>
      <point x="1178" y="1395" type="line"/>
      <point x="1198" y="1375" type="line"/>
      <point x="1138" y="1102" type="line"/>
      <point x="1127" y="1101" type="line"/>
      <point x="1119" y="1284" type="line"/>
      <point x="1106" y="1378"/>
      <point x="977" y="1494"/>
      <point x="874" y="1498" type="qcurve" smooth="yes"/>
      <point x="638" y="1507"/>
      <point x="241" y="1137"/>
      <point x="163" y="752" type="qcurve" smooth="yes"/>
      <point x="90" y="392"/>
      <point x="287" y="35"/>
      <point x="467" y="9" type="qcurve" smooth="yes"/>
      <point x="680" y="-22"/>
      <point x="965" y="213"/>
      <point x="1021" y="379" type="qcurve"/>
      <point x="1033" y="378" type="line"/>
      <point x="1040" y="369" type="line"/>
      <point x="983" y="196"/>
      <point x="680" y="-42"/>
      <point x="451" y="-10" type="qcurve" smooth="yes"/>
      <point x="249" y="18"/>
      <point x="22" y="417"/>
    </contour>
  </outline>
</glyph>
<glyph name="cent" format="2">
  <advance width="834"/>
  <unicode hex="00A2"/>
  <outline>
    <contour>
      <point x="239" y="-84.0" type="line"/>
      <point x="296" y="153.0" type="line"/>
      <point x="297" y="158.0" type="line"/>
      <point x="382" y="540.0" type="line"/>
      <point x="385" y="498.0" type="line"/>
      <point x="310" y="158.0" type="line"/>
      <point x="309" y="153.0" type="line"/>
      <point x="255" y="-77.0" type="line"/>
    </contour>
    <contour>
      <point x="546" y="1258.0" type="line"/>
      <point x="559" y="1255.0" type="line"/>
      <point x="515" y="1072.0" type="line"/>
      <point x="514" y="1067.0" type="line"/>
      <point x="385" y="498.0" type="line"/>
      <point x="382" y="540.0" type="line"/>
      <point x="503" y="1067.0" type="line"/>
      <point x="504" y="1072.0" type="line"/>
    </contour>
    <contour>
      <point x="82" y="604" type="qcurve" smooth="yes"/>
      <point x="125" y="818"/>
      <point x="368" y="1080"/>
      <point x="545" y="1080" type="qcurve" smooth="yes"/>
      <point x="650" y="1080"/>
      <point x="757" y="974"/>
      <point x="757" y="905" type="qcurve" smooth="yes"/>
      <point x="757" y="850"/>
      <point x="722" y="776"/>
      <point x="694" y="747" type="qcurve"/>
      <point x="667" y="766" type="line"/>
      <point x="677" y="1010" type="line" smooth="yes"/>
      <point x="679" y="1035"/>
      <point x="577" y="1060"/>
      <point x="535" y="1060" type="qcurve" smooth="yes"/>
      <point x="389" y="1060"/>
      <point x="187" y="787"/>
      <point x="153" y="602" type="qcurve" smooth="yes"/>
      <point x="116" y="402"/>
      <point x="221" y="166"/>
      <point x="371" y="166" type="qcurve" smooth="yes"/>
      <point x="472" y="166"/>
      <point x="655" y="283"/>
      <point x="718" y="378" type="qcurve"/>
      <point x="723" y="373" type="line"/>
      <point x="723" y="354" type="line"/>
      <point x="653" y="248"/>
      <point x="456" y="128"/>
      <point x="345" y="128" type="qcurve" smooth="yes"/>
      <point x="167" y="128"/>
      <point x="41" y="399"/>
    </contour>
  </outline>
</glyph>
<glyph name="guillemetleft" format="2">
  <advance width="1214"/>
  <unicode hex="00AB"/>
  <outline>
    <contour>
      <point x="119.0" y="589.0" type="line"/>
      <point x="119.0" y="589.0"/>
      <point x="637" y="883"/>
      <point x="719" y="929" type="qcurve" smooth="yes"/>
      <point x="745" y="944"/>
      <point x="752" y="929"/>
      <point x="728" y="913" type="qcurve" smooth="yes"/>
      <point x="628" y="846"/>
      <point x="212.0" y="602.0"/>
      <point x="170.0" y="571.0" type="qcurve"/>
      <point x="211.0" y="541.0"/>
      <point x="590" y="280"/>
      <point x="633" y="244" type="qcurve" smooth="yes"/>
      <point x="664" y="218"/>
      <point x="653" y="207"/>
      <point x="624" y="225" type="qcurve" smooth="yes"/>
      <point x="569" y="258"/>
      <point x="174.0" y="511.0"/>
      <point x="113.0" y="559.0" type="qcurve"/>
    </contour>
    <contour>
      <point x="548.0" y="599.0" type="line"/>
      <point x="548.0" y="599.0"/>
      <point x="1066" y="893"/>
      <point x="1148" y="939" type="qcurve" smooth="yes"/>
      <point x="1174" y="954"/>
      <point x="1181" y="939"/>
      <point x="1157" y="923" type="qcurve" smooth="yes"/>
      <point x="1057" y="856"/>
      <point x="641.0" y="612.0"/>
      <point x="599.0" y="581.0" type="qcurve"/>
      <point x="640.0" y="551.0"/>
      <point x="1019" y="290"/>
      <point x="1062" y="254" type="qcurve" smooth="yes"/>
      <point x="1093" y="228"/>
      <point x="1082" y="217"/>
      <point x="1053" y="235" type="qcurve" smooth="yes"/>
      <point x="998" y="268"/>
      <point x="603.0" y="521.0"/>
      <point x="542.0" y="569.0" type="qcurve"/>
    </contour>
  </outline>
</glyph>
<glyph name="plusminus" format="2">
  <advance width="879"/>
  <unicode hex="00B1"/>
  <outline>
    <contour>
      <point x="33.0" y="616.0" type="line"/>
      <point x="33.0" y="648.0" type="line"/>
      <point x="777.0" y="648.0" type="line"/>
      <point x="777.0" y="616.0" type="line"/>
    </contour>
    <contour>
      <point x="385.0" y="220.0" type="line"/>
      <point x="385.0" y="1004.0" type="line"/>
      <point x="425.0" y="1004.0" type="line"/>
      <point x="425.0" y="220.0" type="line"/>
    </contour>
    <contour>
      <point x="33.0" y="26.0" type="line"/>
      <point x="33.0" y="58.0" type="line"/>
      <point x="777.0" y="58.0" type="line"/>
      <point x="777.0" y="26.0" type="line"/>
    </contour>
  </outline>
</glyph>
<glyph name="twosuperior" format="2">
  <advance width="669"/>
  <unicode hex="00B2"/>
  <outline>
    <contour>
      <point x="85.0" y="712.0" type="qcurve"/>
      <point x="80" y="719" type="line"/>
      <point x="156.0" y="774" type="line"/>
      <point x="368" y="932"/>
      <point x="606" y="1197"/>
      <point x="606" y="1315" type="qcurve" smooth="yes"/>
      <point x="606" y="1394"/>
      <point x="521" y="1490"/>
      <point x="441" y="1490.0" type="qcurve" smooth="yes"/>
      <point x="383" y="1490"/>
      <point x="266.0" y="1433"/>
      <point x="223.0" y="1376" type="qcurve"/>
      <point x="213.0" y="1383.0" type="line"/>
      <point x="252.0" y="1448.0"/>
      <point x="377.0" y="1524.0"/>
      <point x="453.0" y="1524.0" type="qcurve" smooth="yes"/>
      <point x="550.0" y="1524.0"/>
      <point x="662.0" y="1427.0"/>
      <point x="662.0" y="1335.0" type="qcurve" smooth="yes"/>
      <point x="662.0" y="1207.0"/>
      <point x="484" y="992"/>
      <point x="215" y="793" type="qcurve"/>
      <point x="220" y="789" type="line"/>
      <point x="286" y="803"/>
      <point x="505" y="791"/>
      <point x="592" y="764" type="qcurve"/>
      <point x="556.0" y="697.0" type="line"/>
      <point x="477.0" y="734.0"/>
      <point x="183.0" y="782.0"/>
    </contour>
  </outline>
</glyph>
<glyph name="threesuperior" format="2">
  <advance width="674"/>
  <unicode hex="00B3"/>
  <outline>
    <contour>
      <point x="64.0" y="706.0" type="qcurve" smooth="yes"/>
      <point x="64" y="750"/>
      <point x="126.0" y="809"/>
      <point x="168.0" y="821" type="qcurve"/>
      <point x="173" y="820" type="line"/>
      <point x="173" y="808" type="line"/>
      <point x="153" y="798"/>
      <point x="119" y="751"/>
      <point x="119.0" y="721" type="qcurve" smooth="yes"/>
      <point x="119.0" y="674"/>
      <point x="207" y="619"/>
      <point x="274" y="619" type="qcurve" smooth="yes"/>
      <point x="410" y="619"/>
      <point x="589.0" y="762"/>
      <point x="589.0" y="913.0" type="qcurve" smooth="yes"/>
      <point x="589.0" y="1000"/>
      <point x="456.0" y="1123"/>
      <point x="352.0" y="1124" type="qcurve" smooth="yes"/>
      <point x="304.0" y="1130" type="line"/>
      <point x="307" y="1140" type="line"/>
      <point x="343.0" y="1139" type="line" smooth="yes"/>
      <point x="447.0" y="1137"/>
      <point x="610" y="1253"/>
      <point x="610" y="1353" type="qcurve" smooth="yes"/>
      <point x="610" y="1415"/>
      <point x="551.0" y="1488"/>
      <point x="479.0" y="1488" type="qcurve" smooth="yes"/>
      <point x="424.0" y="1488"/>
      <point x="305.0" y="1429"/>
      <point x="258.0" y="1373" type="qcurve"/>
      <point x="244.0" y="1385.0" type="line"/>
      <point x="283.0" y="1452.0"/>
      <point x="417.0" y="1523.0"/>
      <point x="485.0" y="1523.0" type="qcurve" smooth="yes"/>
      <point x="569.0" y="1523.0"/>
      <point x="658.0" y="1437.0"/>
      <point x="658.0" y="1359.0" type="qcurve" smooth="yes"/>
      <point x="658.0" y="1267.0"/>
      <point x="536" y="1147"/>
      <point x="458.0" y="1138.0" type="qcurve"/>
      <point x="458.0" y="1134.0" type="line"/>
      <point x="545" y="1120"/>
      <point x="632" y="1018.0"/>
      <point x="631" y="927.0" type="qcurve" smooth="yes"/>
      <point x="629" y="785"/>
      <point x="418.0" y="584.0"/>
      <point x="268.0" y="584.0" type="qcurve" smooth="yes"/>
      <point x="158.0" y="584.0"/>
      <point x="64" y="659"/>
    </contour>
  </outline>
</glyph>
<glyph name="paragraph" format="2">
  <advance width="900"/>
  <unicode hex="00B6"/>
  <outline>
    <contour>
      <point x="522" y="132.0" type="qcurve" smooth="yes"/>
      <point x="661" y="817.0" type="line"/>
      <point x="621" y="814.0"/>
      <point x="562" y="810"/>
      <point x="502.0" y="810.0" type="qcurve" smooth="yes"/>
      <point x="278.0" y="810.0"/>
      <point x="113.0" y="1029.0"/>
      <point x="138" y="1194" type="qcurve" smooth="yes"/>
      <point x="164" y="1366"/>
      <point x="372.0" y="1500.0"/>
      <point x="550.0" y="1500.0" type="qcurve" smooth="yes"/>
      <point x="997.0" y="1500.0" type="line"/>
      <point x="994" y="1481" type="line"/>
      <point x="790" y="1451" type="line"/>
      <point x="673.0" y="784.0" type="line"/>
      <point x="545.0" y="132.0" type="line"/>
      <point x="609" y="90"/>
      <point x="598" y="0"/>
      <point x="555" y="0" type="qcurve" smooth="yes"/>
      <point x="523" y="0"/>
      <point x="508" y="61"/>
    </contour>
    <contour>
      <point x="366" y="220.0" type="qcurve" smooth="yes"/>
      <point x="500" y="872.0" type="line"/>
      <point x="519.0" y="863.0" type="line"/>
      <point x="393.0" y="250.0" type="line" smooth="yes"/>
      <point x="330" y="-58"/>
      <point x="191.0" y="-248.0"/>
      <point x="66.0" y="-248.0" type="qcurve" smooth="yes"/>
      <point x="-2.0" y="-248.0"/>
      <point x="-89.0" y="-176.0"/>
      <point x="-89.0" y="-115.0" type="qcurve" smooth="yes"/>
      <point x="-89.0" y="-67.0"/>
      <point x="-28.0" y="15.0"/>
      <point x="28.0" y="19.0" type="qcurve"/>
      <point x="30.0" y="16.0" type="line"/>
      <point x="29.0" y="12.0" type="line"/>
      <point x="-12.0" y="-3.0"/>
      <point x="-51" y="-70"/>
      <point x="-51.0" y="-122.0" type="qcurve" smooth="yes"/>
      <point x="-51.0" y="-181.0"/>
      <point x="21.0" y="-228.0"/>
      <point x="65.0" y="-228.0" type="qcurve" smooth="yes"/>
      <point x="200" y="-228"/>
      <point x="318" y="-9.0"/>
    </contour>
  </outline>
</glyph>
<glyph name="periodcentered" format="2">
  <advance width="456"/>
  <unicode hex="00B7"/>
  <outline>
    <contour>
      <point x="164.0" y="693.0" type="qcurve" smooth="yes"/>
      <point x="164.0" y="720.0"/>
      <point x="202.0" y="760.0"/>
      <point x="232.0" y="760.0" type="qcurve" smooth="yes"/>
      <point x="262.0" y="760.0"/>
      <point x="301.0" y="720.0"/>
      <point x="301.0" y="693.0" type="qcurve" smooth="yes"/>
      <point x="301.0" y="664.0"/>
      <point x="262.0" y="624.0"/>
      <point x="232.0" y="624.0" type="qcurve" smooth="yes"/>
      <point x="202.0" y="624.0"/>
      <point x="164.0" y="664.0"/>
    </contour>
  </outline>
</glyph>
<glyph name="cedilla" format="2">
  <advance width="896"/>
  <unicode hex="00B8"/>
  <outline>
    <contour>
      <point x="295.0" y="-3.0" type="line"/>
      <point x="220.0" y="-123.0" type="line"/>
      <point x="239.0" y="-110.0"/>
      <point x="313.0" y="-91.0"/>
      <point x="342.0" y="-91.0" type="qcurve" smooth="yes"/>
      <point x="407.0" y="-91.0"/>
      <point x="502.0" y="-165.0"/>
      <point x="501.0" y="-246.0" type="qcurve" smooth="yes"/>
      <point x="499.0" y="-336.0"/>
      <point x="357.0" y="-440.0"/>
      <point x="261.0" y="-440.0" type="qcurve" smooth="yes"/>
      <point x="183.0" y="-440.0"/>
      <point x="69.0" y="-393.0"/>
      <point x="31.0" y="-339.0" type="qcurve"/>
      <point x="40.0" y="-331.0" type="line"/>
      <point x="82.0" y="-382.0"/>
      <point x="182" y="-425"/>
      <point x="257.0" y="-425.0" type="qcurve" smooth="yes"/>
      <point x="349.0" y="-425.0"/>
      <point x="467" y="-323"/>
      <point x="469.0" y="-255.0" type="qcurve" smooth="yes"/>
      <point x="471.0" y="-179"/>
      <point x="395.0" y="-108.0"/>
      <point x="330.0" y="-108.0" type="qcurve" smooth="yes"/>
      <point x="297.0" y="-108.0"/>
      <point x="238.0" y="-127.0"/>
      <point x="212.0" y="-139.0" type="qcurve"/>
      <point x="200.0" y="-125.0" type="line"/>
      <point x="284.0" y="4.0" type="line"/>
    </contour>
  </outline>
</glyph>
<glyph name="onesuperior" format="2">
  <advance width="503"/>
  <unicode hex="00B9"/>
  <outline>
    <contour>
      <point x="202.0" y="712.0" type="line"/>
      <point x="216.0" y="730.0"/>
      <point x="227.0" y="783.0"/>
      <point x="243.0" y="867.0" type="qcurve" smooth="yes"/>
      <point x="317.28169014084506" y="1244.3661971830986" type="line"/>
      <point x="356.28169014084506" y="1453.3661971830986" type="line"/>
      <point x="144.11267605633802" y="1327.774647887324" type="line"/>
      <point x="134.0" y="1350.0" type="line"/>
      <point x="418.0" y="1504.0" type="line"/>
      <point x="425.0" y="1494.0" type="line"/>
      <point x="411.0" y="1474.0"/>
      <point x="398.0" y="1434.0"/>
      <point x="390.0" y="1390.0" type="qcurve" smooth="yes"/>
      <point x="287.0" y="864.0" type="line"/>
      <point x="274.0" y="742.0" type="line"/>
      <point x="222.0" y="703.0" type="line"/>
    </contour>
  </outline>
</glyph>
<glyph name="ordmasculine" format="2">
  <advance width="695"/>
  <unicode hex="00BA"/>
  <outline>
    <contour>
      <point x="163.0" y="1145.0" type="qcurve" smooth="yes"/>
      <point x="199.0" y="1312.0"/>
      <point x="419.0" y="1514.0"/>
      <point x="528.0" y="1501.0" type="qcurve" smooth="yes"/>
      <point x="633.0" y="1489.0"/>
      <point x="721.0" y="1242.0"/>
      <point x="691.0" y="1100.0" type="qcurve" smooth="yes"/>
      <point x="653.0" y="932.0"/>
      <point x="440.0" y="724.0"/>
      <point x="328.0" y="733.0" type="qcurve" smooth="yes"/>
      <point x="229.0" y="740.0"/>
      <point x="128.0" y="989.0"/>
    </contour>
    <contour>
      <point x="226.0" y="1147.0" type="qcurve" smooth="yes"/>
      <point x="186.35211267605635" y="988.3802816901408"/>
      <point x="229.0" y="751.2816901408451"/>
      <point x="336.0" y="742.2816901408451" type="qcurve" smooth="yes"/>
      <point x="447.0" y="733.2816901408451"/>
      <point x="609.7042253521126" y="960.7183098591549"/>
      <point x="637.0" y="1112.0" type="qcurve" smooth="yes"/>
      <point x="657.2957746478874" y="1235.619718309859"/>
      <point x="636.0" y="1486.718309859155"/>
      <point x="526.0" y="1493.718309859155" type="qcurve" smooth="yes"/>
      <point x="408.0" y="1501.718309859155"/>
      <point x="259.6478873239437" y="1284.281690140845"/>
    </contour>
  </outline>
</glyph>
<glyph name="Thorn" format="2">
  <advance width="973"/>
  <unicode hex="00DE"/>
  <outline>
    <contour>
      <point x="423.0" y="1229" type="line"/>
      <point x="610.0" y="1229" type="line" smooth="yes"/>
      <point x="793" y="1229"/>
      <point x="918" y="1006"/>
      <point x="899.0" y="802" type="qcurve" smooth="yes"/>
      <point x="877" y="587"/>
      <point x="622.0" y="386.0"/>
      <point x="383.0" y="386.0" type="qcurve" smooth="yes"/>
      <point x="342.0" y="386.0"/>
      <point x="239.0" y="402.0"/>
      <point x="215" y="413.0" type="qcurve"/>
      <point x="202" y="437" type="line"/>
      <point x="253" y="420"/>
      <point x="347.0" y="405"/>
      <point x="405.0" y="405" type="qcurve" smooth="yes"/>
      <point x="547.0" y="405"/>
      <point x="784" y="554"/>
      <point x="821" y="791" type="qcurve" smooth="yes"/>
      <point x="849" y="976"/>
      <point x="735.0" y="1203.0"/>
      <point x="565" y="1203" type="qcurve" smooth="yes"/>
      <point x="433" y="1203" type="line"/>
      <point x="409" y="1186" type="line"/>
      <point x="308.0" y="726.0" type="line"/>
      <point x="160" y="45" type="line"/>
      <point x="333" y="19" type="line"/>
      <point x="329.0" y="0.0" type="line"/>
      <point x="-89.0" y="0.0" type="line"/>
      <point x="-84" y="19" type="line"/>
      <point x="76" y="45" type="line"/>
      <point x="237.0" y="767.0" type="line"/>
      <point x="380" y="1451" type="line"/>
      <point x="225" y="1481" type="line"/>
      <point x="228.0" y="1500.0" type="line"/>
      <point x="642.0" y="1500.0" type="line"/>
      <point x="638" y="1481" type="line"/>
      <point x="458" y="1451" type="line"/>
    </contour>
  </outline>
</glyph>
<glyph name="germandbls" format="2">
  <advance width="1061"/>
  <unicode hex="00DF"/>
  <outline>
    <contour>
      <point x="70" y="365" type="qcurve"/>
      <point x="246.0" y="1242.0" type="line" smooth="yes"/>
      <point x="279.0" y="1417.0"/>
      <point x="405" y="1584.0"/>
      <point x="512.0" y="1582.0" type="qcurve" smooth="yes"/>
      <point x="642" y="1580"/>
      <point x="774" y="1429"/>
      <point x="774" y="1314.0" type="qcurve" smooth="yes"/>
      <point x="774" y="1201"/>
      <point x="662" y="1031"/>
      <point x="588" y="945" type="qcurve" smooth="yes"/>
      <point x="551" y="902"/>
      <point x="523" y="813"/>
      <point x="521" y="767.0" type="qcurve" smooth="yes"/>
      <point x="519" y="706.0"/>
      <point x="592.0" y="595.0"/>
      <point x="674.0" y="536.0" type="qcurve" smooth="yes"/>
      <point x="792.0" y="456.0"/>
      <point x="864.0" y="355.0"/>
      <point x="863.0" y="285.0" type="qcurve" smooth="yes"/>
      <point x="862.0" y="150.0"/>
      <point x="678" y="-14"/>
      <point x="537.0" y="-14.0" type="qcurve" smooth="yes"/>
      <point x="430.0" y="-14"/>
      <point x="304.0" y="69.0"/>
      <point x="304.0" y="142.0" type="qcurve" smooth="yes"/>
      <point x="304" y="207"/>
      <point x="344.0" y="242.0"/>
      <point x="367" y="242" type="qcurve" smooth="yes"/>
      <point x="376" y="242" type="line"/>
      <point x="376" y="146" type="line" smooth="yes"/>
      <point x="376.0" y="81.0"/>
      <point x="487.0" y="6"/>
      <point x="568" y="6" type="qcurve" smooth="yes"/>
      <point x="691" y="6"/>
      <point x="837" y="157"/>
      <point x="837" y="241" type="qcurve" smooth="yes"/>
      <point x="837" y="296"/>
      <point x="779" y="362"/>
      <point x="645.0" y="453" type="qcurve" smooth="yes"/>
      <point x="540" y="531"/>
      <point x="456" y="642.0"/>
      <point x="458" y="704.0" type="qcurve" smooth="yes"/>
      <point x="460" y="772"/>
      <point x="540" y="908"/>
      <point x="578" y="952" type="qcurve" smooth="yes"/>
      <point x="650" y="1035"/>
      <point x="714" y="1215"/>
      <point x="714.0" y="1318" type="qcurve" smooth="yes"/>
      <point x="714" y="1418"/>
      <point x="602" y="1568"/>
      <point x="519" y="1568" type="qcurve" smooth="yes"/>
      <point x="441" y="1568"/>
      <point x="326" y="1407"/>
      <point x="284" y="1170" type="qcurve" smooth="yes"/>
      <point x="162.0" y="537.0" type="line" smooth="yes"/>
      <point x="73.0" y="40.0"/>
      <point x="-130.0" y="-393.0"/>
      <point x="-280.0" y="-393.0" type="qcurve"/>
      <point x="-409.0" y="-362.0" type="line"/>
      <point x="-405" y="-347" type="line"/>
      <point x="-330" y="-345" type="line"/>
      <point x="-124" y="-350"/>
      <point x="-4" y="-63"/>
    </contour>
  </outline>
</glyph>
<glyph name="ae" format="2">
  <advance width="1408"/>
  <unicode hex="00E6"/>
  <outline>
    <contour>
      <point x="70" y="273" type="qcurve" smooth="yes"/>
      <point x="67" y="115"/>
      <point x="178" y="15"/>
      <point x="257" y="15" type="qcurve" smooth="yes"/>
      <point x="367.0" y="15.0"/>
      <point x="623" y="228"/>
      <point x="656" y="430" type="qcurve" smooth="yes"/>
      <point x="724" y="848" type="line"/>
      <point x="706" y="873"/>
      <point x="620.0" y="917.0"/>
      <point x="551" y="917" type="qcurve" smooth="yes"/>
      <point x="378" y="917"/>
      <point x="76" y="467"/>
    </contour>
    <contour>
      <point x="1.0" y="239.0" type="qcurve" smooth="yes"/>
      <point x="4.0" y="507.0"/>
      <point x="353" y="937"/>
      <point x="568.0" y="937.0" type="qcurve" smooth="yes"/>
      <point x="618.0" y="937.0"/>
      <point x="729" y="891"/>
      <point x="753.0" y="867.0" type="qcurve"/>
      <point x="788.0" y="931.0" type="line"/>
      <point x="797.0" y="924.0" type="line"/>
      <point x="811.0" y="796.0" type="line"/>
      <point x="859" y="853"/>
      <point x="993" y="939"/>
      <point x="1075" y="939" type="qcurve" smooth="yes"/>
      <point x="1169.0" y="939.0"/>
      <point x="1264" y="832"/>
      <point x="1271" y="751" type="qcurve" smooth="yes"/>
      <point x="1275.0" y="703"/>
      <point x="1269" y="616.0"/>
      <point x="1262" y="587.0" type="qcurve"/>
      <point x="1331" y="583.0" type="line"/>
      <point x="1327" y="565" type="line"/>
      <point x="1288" y="567"/>
      <point x="1127" y="570"/>
      <point x="1060" y="569" type="qcurve" smooth="yes"/>
      <point x="707" y="564" type="line"/>
      <point x="707" y="579.0" type="line"/>
      <point x="1197" y="585.0" type="line"/>
      <point x="1207" y="621"/>
      <point x="1215" y="715"/>
      <point x="1212" y="767" type="qcurve" smooth="yes"/>
      <point x="1208" y="840"/>
      <point x="1142" y="919"/>
      <point x="1060" y="919" type="qcurve" smooth="yes"/>
      <point x="941" y="919"/>
      <point x="774" y="673"/>
      <point x="727" y="485.0" type="qcurve" smooth="yes"/>
      <point x="680" y="298"/>
      <point x="750" y="25"/>
      <point x="866" y="16" type="qcurve" smooth="yes"/>
      <point x="997.0" y="6.0"/>
      <point x="1184.0" y="134.0"/>
      <point x="1261" y="256" type="qcurve"/>
      <point x="1268" y="251" type="line"/>
      <point x="1277" y="245" type="line"/>
      <point x="1194.0" y="118.0"/>
      <point x="984.0" y="-17.0"/>
      <point x="845" y="-6" type="qcurve" smooth="yes"/>
      <point x="733" y="3"/>
      <point x="643.0" y="162.0"/>
      <point x="645.0" y="300.0" type="qcurve"/>
      <point x="595.0" y="174.0"/>
      <point x="345.0" y="-5.0"/>
      <point x="216.0" y="-5.0" type="qcurve" smooth="yes"/>
      <point x="114.0" y="-5.0"/>
      <point x="0.0" y="116.0"/>
    </contour>
  </outline>
</glyph>
<glyph name="eth" format="2">
  <advance width="955"/>
  <unicode hex="00F0"/>
  <outline>
    <contour>
      <point x="-14.0" y="522.0" type="qcurve" smooth="yes"/>
      <point x="36.0" y="748.0"/>
      <point x="318.0" y="949.0"/>
      <point x="492.0" y="939.0" type="qcurve" smooth="yes"/>
      <point x="633.0" y="931.0"/>
      <point x="798.0" y="757.0"/>
      <point x="777.0" y="602.0" type="qcurve"/>
      <point x="741.0" y="609.0" type="line"/>
      <point x="761.0" y="747.0"/>
      <point x="627" y="920"/>
      <point x="477" y="924" type="qcurve" smooth="yes"/>
      <point x="350" y="927"/>
      <point x="110.0" y="729.0"/>
      <point x="61.0" y="530.0" type="qcurve" smooth="yes"/>
      <point x="1.0" y="285.0"/>
      <point x="94" y="24"/>
      <point x="260" y="11" type="qcurve" smooth="yes"/>
      <point x="430" y="-3"/>
      <point x="641" y="291"/>
      <point x="703.0" y="519.0" type="qcurve" smooth="yes"/>
      <point x="820" y="947"/>
      <point x="759" y="1421"/>
      <point x="619" y="1454" type="qcurve" smooth="yes"/>
      <point x="503" y="1483"/>
      <point x="251" y="1404"/>
      <point x="161" y="1308" type="qcurve"/>
      <point x="157" y="1308" type="line"/>
      <point x="157.0" y="1315.0" type="line"/>
      <point x="250.0" y="1438.0"/>
      <point x="529" y="1534"/>
      <point x="641.0" y="1507.0" type="qcurve" smooth="yes"/>
      <point x="822" y="1463"/>
      <point x="873.0" y="932.0"/>
      <point x="792.0" y="577.0" type="qcurve" smooth="yes"/>
      <point x="719.0" y="271.0"/>
      <point x="422.0" y="-20.0"/>
      <point x="257.0" y="-10.0" type="qcurve" smooth="yes"/>
      <point x="99.0" y="0.0"/>
      <point x="-64.0" y="298.0"/>
    </contour>
    <contour>
      <point x="731" y="1336" type="line"/>
      <point x="954" y="1476" type="line"/>
      <point x="972" y="1462" type="line"/>
      <point x="739" y="1320" type="line"/>
      <point x="443" y="1117" type="line"/>
      <point x="418" y="1131" type="line"/>
    </contour>
  </outline>
</glyph>
<glyph name="kgreenlandic" format="2">
  <advance width="896"/>
  <unicode hex="0138"/>
  <outline>
    <contour>
      <point x="38.0" y="56.0" type="line"/>
      <point x="137.0" y="490.0" type="line"/>
      <point x="198" y="865" type="line"/>
      <point x="38.0" y="867" type="line"/>
      <point x="38" y="882.0" type="line"/>
      <point x="230.0" y="921" type="line"/>
      <point x="255.0" y="907.0" type="line"/>
      <point x="256.0" y="897.0" type="line"/>
      <point x="210.0" y="632.0" type="line"/>
      <point x="90.0" y="78.0" type="line"/>
      <point x="106.0" y="6.0" type="line"/>
      <point x="35.0" y="-12.0" type="line"/>
    </contour>
    <contour>
      <point x="838" y="904" type="line"/>
      <point x="702" y="878" type="line"/>
      <point x="401" y="602" type="line"/>
      <point x="615" y="75.0" type="line"/>
      <point x="788.0" y="90.0" type="line"/>
      <point x="788.0" y="86.0" type="line"/>
      <point x="659.0" y="11.0" type="line" smooth="yes"/>
      <point x="614" y="-15"/>
      <point x="599.0" y="0.0"/>
      <point x="554.0" y="101.0" type="qcurve"/>
      <point x="362" y="567" type="line"/>
      <point x="151.0" y="369" type="line"/>
      <point x="146.0" y="385" type="line"/>
      <point x="624" y="868" type="line"/>
      <point x="625" y="875" type="line"/>
      <point x="535" y="905" type="line"/>
      <point x="538" y="920.0" type="line"/>
      <point x="842" y="920.0" type="line"/>
    </contour>
  </outline>
</glyph>
<glyph name="oe" format="2">
  <advance width="1448"/>
  <unicode hex="0153"/>
  <outline>
    <contour>
      <point x="15" y="521" type="qcurve" smooth="yes"/>
      <point x="68" y="751"/>
      <point x="340" y="955"/>
      <point x="514" y="941" type="qcurve" smooth="yes"/>
      <point x="629" y="932"/>
      <point x="763" y="786"/>
      <point x="783" y="682" type="qcurve"/>
      <point x="840" y="793"/>
      <point x="1020" y="939"/>
      <point x="1137" y="939" type="qcurve" smooth="yes"/>
      <point x="1228" y="939"/>
      <point x="1328" y="828"/>
      <point x="1333" y="731" type="qcurve" smooth="yes"/>
      <point x="1335" y="699"/>
      <point x="1327" y="605"/>
      <point x="1323" y="587" type="qcurve"/>
      <point x="1392" y="583" type="line"/>
      <point x="1388" y="565" type="line"/>
      <point x="1349" y="566"/>
      <point x="1201" y="568"/>
      <point x="1134" y="567" type="qcurve" smooth="yes"/>
      <point x="768" y="564" type="line"/>
      <point x="768" y="579" type="line"/>
      <point x="1258" y="585" type="line"/>
      <point x="1267" y="618"/>
      <point x="1275" y="721"/>
      <point x="1272" y="781" type="qcurve" smooth="yes"/>
      <point x="1269" y="839"/>
      <point x="1200" y="919"/>
      <point x="1118" y="919" type="qcurve" smooth="yes"/>
      <point x="999" y="919"/>
      <point x="830" y="673"/>
      <point x="786" y="485" type="qcurve" smooth="yes"/>
      <point x="742" y="298"/>
      <point x="809" y="26"/>
      <point x="930" y="15" type="qcurve" smooth="yes"/>
      <point x="1062" y="3"/>
      <point x="1259" y="151"/>
      <point x="1322" y="256" type="qcurve"/>
      <point x="1328" y="252" type="line"/>
      <point x="1338" y="245" type="line"/>
      <point x="1269" y="136"/>
      <point x="1058" y="-18"/>
      <point x="911" y="-6" type="qcurve" smooth="yes"/>
      <point x="805" y="3"/>
      <point x="704" y="127"/>
      <point x="694" y="223" type="qcurve"/>
      <point x="622" y="96"/>
      <point x="405" y="-24"/>
      <point x="279" y="-10" type="qcurve" smooth="yes"/>
      <point x="121" y="8"/>
      <point x="-36" y="305"/>
    </contour>
    <contour>
      <point x="92" y="543" type="qcurve" smooth="yes"/>
      <point x="29" y="307"/>
      <point x="142" y="28"/>
      <point x="279" y="13" type="qcurve" smooth="yes"/>
      <point x="443" y="-5"/>
      <point x="668" y="274"/>
      <point x="709" y="470" type="qcurve" smooth="yes"/>
      <point x="749" y="667"/>
      <point x="652" y="906"/>
      <point x="512" y="921" type="qcurve" smooth="yes"/>
      <point x="380" y="935"/>
      <point x="144" y="738"/>
    </contour>
  </outline>
</glyph>
<glyph name="florin" format="2">
  <advance width="583"/>
  <unicode hex="0192"/>
  <outline>
    <contour>
      <point x="271.0" y="386.0" type="line" smooth="yes"/>
      <point x="195" y="-12"/>
      <point x="63" y="-291"/>
      <point x="-78.0" y="-291.0" type="qcurve" smooth="yes"/>
      <point x="-104" y="-291.0"/>
      <point x="-122" y="-289"/>
      <point x="-130.0" y="-288.0" type="qcurve" smooth="yes"/>
      <point x="-149.0" y="-285.0" type="line"/>
      <point x="-146" y="-266" type="line"/>
      <point x="-127" y="-269" type="line" smooth="yes"/>
      <point x="-120" y="-270"/>
      <point x="-100" y="-271.0"/>
      <point x="-87" y="-271.0" type="qcurve" smooth="yes"/>
      <point x="-8" y="-271"/>
      <point x="134" y="-54"/>
      <point x="204" y="363" type="qcurve" smooth="yes"/>
      <point x="275" y="818" type="line"/>
      <point x="133.0" y="826" type="line"/>
      <point x="132.0" y="837.0" type="line"/>
      <point x="284.0" y="860.0" type="line"/>
      <point x="338.0" y="1111.0" type="line" smooth="yes"/>
      <point x="381.0" y="1314.0"/>
      <point x="450" y="1524"/>
      <point x="573.0" y="1524.0" type="qcurve" smooth="yes"/>
      <point x="596" y="1524.0"/>
      <point x="646" y="1515"/>
      <point x="656.0" y="1513.0" type="qcurve" smooth="yes"/>
      <point x="670.0" y="1510.0" type="line"/>
      <point x="667" y="1493" type="line"/>
      <point x="653" y="1496" type="line" smooth="yes"/>
      <point x="634" y="1500"/>
      <point x="601" y="1503"/>
      <point x="589" y="1503" type="qcurve" smooth="yes"/>
      <point x="489" y="1503"/>
      <point x="427" y="1320"/>
      <point x="386" y="1063" type="qcurve" smooth="yes"/>
      <point x="357.0" y="859.0" type="line"/>
      <point x="552.0" y="859.0" type="line"/>
      <point x="547.0" y="850" type="line"/>
      <point x="354" y="823" type="line"/>
    </contour>
  </outline>
</glyph>
<glyph name="dotaccent" format="2">
  <advance width="896"/>
  <unicode hex="02D9"/>
  <outline>
    <contour>
      <point x="471.0" y="1134.0" type="qcurve" smooth="yes"/>
      <point x="471.0" y="1161.0"/>
      <point x="500.0" y="1189.0"/>
      <point x="528.0" y="1189.0" type="qcurve" smooth="yes"/>
      <point x="554.0" y="1189.0"/>
      <point x="585.0" y="1158.0"/>
      <point x="585.0" y="1134.0" type="qcurve" smooth="yes"/>
      <point x="585.0" y="1108.0"/>
      <point x="556.0" y="1077.0"/>
      <point x="528.0" y="1077.0" type="qcurve" smooth="yes"/>
      <point x="503.0" y="1077.0"/>
      <point x="471.0" y="1109.0"/>
    </contour>
  </outline>
</glyph>
<glyph name="ring" format="2">
  <advance width="896"/>
  <unicode hex="02DA"/>
  <outline>
    <contour>
      <point x="408.0" y="1253.0" type="qcurve" smooth="yes"/>
      <point x="408.0" y="1324.0"/>
      <point x="505.0" y="1427.0"/>
      <point x="578.0" y="1427.0" type="qcurve" smooth="yes"/>
      <point x="651.0" y="1427.0"/>
      <point x="747.0" y="1324.0"/>
      <point x="747.0" y="1253.0" type="qcurve" smooth="yes"/>
      <point x="747.0" y="1174.0"/>
      <point x="651.0" y="1080.0"/>
      <point x="578.0" y="1080.0" type="qcurve" smooth="yes"/>
      <point x="505.0" y="1080.0"/>
      <point x="408.0" y="1174.0"/>
    </contour>
    <contour>
      <point x="431.0" y="1253.0" type="qcurve" smooth="yes"/>
      <point x="431.0" y="1189.0"/>
      <point x="513.0" y="1098.0"/>
      <point x="578.0" y="1098.0" type="qcurve" smooth="yes"/>
      <point x="643.0" y="1098.0"/>
      <point x="725.0" y="1188.0"/>
      <point x="725.0" y="1253.0" type="qcurve" smooth="yes"/>
      <point x="725.0" y="1318.0"/>
      <point x="643.0" y="1409.0"/>
      <point x="578.0" y="1409.0" type="qcurve" smooth="yes"/>
      <point x="512.0" y="1409.0"/>
      <point x="431.0" y="1318.0"/>
    </contour>
  </outline>
</glyph>
<glyph name="tilde" format="2">
  <advance width="896"/>
  <unicode hex="02DC"/>
  <outline>
    <contour>
      <point x="240.0" y="1140.0" type="line"/>
      <point x="266.0" y="1184.0"/>
      <point x="338.0" y="1242.0"/>
      <point x="393.0" y="1242.0" type="qcurve" smooth="yes"/>
      <point x="427.0" y="1242.0"/>
      <point x="487.0" y="1218.0"/>
      <point x="526.0" y="1190.0" type="qcurve" smooth="yes"/>
      <point x="560.0" y="1162.0"/>
      <point x="626.0" y="1126.0"/>
      <point x="656.0" y="1126.0" type="qcurve" smooth="yes"/>
      <point x="707.0" y="1126.0"/>
      <point x="775.0" y="1182.0"/>
      <point x="795.0" y="1206.0" type="qcurve"/>
      <point x="802.0" y="1200.0" type="line"/>
      <point x="773.0" y="1149.0"/>
      <point x="674.0" y="1088.0"/>
      <point x="621.0" y="1088.0" type="qcurve" smooth="yes"/>
      <point x="583.0" y="1088.0"/>
      <point x="505.0" y="1125.0"/>
      <point x="481.0" y="1140.0" type="qcurve" smooth="yes"/>
      <point x="455.0" y="1156.0"/>
      <point x="393.0" y="1205.0"/>
      <point x="364.0" y="1205.0" type="qcurve" smooth="yes"/>
      <point x="329.0" y="1205.0"/>
      <point x="278.0" y="1172.0"/>
      <point x="249.0" y="1134.0" type="qcurve"/>
    </contour>
  </outline>
</glyph>
<glyph name="hungarumlaut" format="2">
  <advance width="896"/>
  <unicode hex="02DD"/>
  <outline>
    <contour>
      <point x="356.0" y="1040.0" type="line"/>
      <point x="517.0" y="1208.0" type="line" smooth="yes"/>
      <point x="531.0" y="1223.0"/>
      <point x="561.0" y="1251.0"/>
      <point x="568.0" y="1251.0" type="qcurve" smooth="yes"/>
      <point x="574.0" y="1251.0"/>
      <point x="583.0" y="1243.0"/>
      <point x="583.0" y="1234.0" type="qcurve" smooth="yes"/>
      <point x="583.0" y="1226.0"/>
      <point x="560.0" y="1199.0"/>
      <point x="545.0" y="1186.0" type="qcurve" smooth="yes"/>
      <point x="365.0" y="1033.0" type="line"/>
    </contour>
    <contour>
      <point x="604.0" y="1040.0" type="line"/>
      <point x="765.0" y="1208.0" type="line" smooth="yes"/>
      <point x="779.0" y="1223.0"/>
      <point x="809.0" y="1251.0"/>
      <point x="816.0" y="1251.0" type="qcurve" smooth="yes"/>
      <point x="822.0" y="1251.0"/>
      <point x="831.0" y="1243.0"/>
      <point x="831.0" y="1234.0" type="qcurve" smooth="yes"/>
      <point x="831.0" y="1226.0"/>
      <point x="808.0" y="1199.0"/>
      <point x="793.0" y="1186.0" type="qcurve" smooth="yes"/>
      <point x="613.0" y="1033.0" type="line"/>
    </contour>
  </outline>
</glyph>
<glyph name="quotesinglbase" format="2">
  <advance width="440"/>
  <unicode hex="201A"/>
  <outline>
    <contour>
      <point x="-3.0" y="-115.0" type="line"/>
      <point x="45.0" y="-94.0"/>
      <point x="139.0" y="-10.0"/>
      <point x="145.0" y="16.0" type="qcurve"/>
      <point x="120.0" y="13.0"/>
      <point x="71.0" y="43.0"/>
      <point x="71.0" y="82.0" type="qcurve" smooth="yes"/>
      <point x="71.0" y="106.0"/>
      <point x="98.0" y="143.0"/>
      <point x="127.0" y="143.0" type="qcurve" smooth="yes"/>
      <point x="157.0" y="143.0"/>
      <point x="197.0" y="118.0"/>
      <point x="197.0" y="74.0" type="qcurve" smooth="yes"/>
      <point x="197.0" y="12.0"/>
      <point x="76.0" y="-100.0"/>
      <point x="0.0" y="-122.0" type="qcurve"/>
    </contour>
  </outline>
</glyph>
<glyph name="quotedblleft" format="2">
  <advance width="672"/>
  <unicode hex="201C"/>
  <outline>
    <contour>
      <point x="510" y="1531" type="line"/>
      <point x="462" y="1510"/>
      <point x="368.0" y="1426.0"/>
      <point x="362" y="1400" type="qcurve"/>
      <point x="387" y="1403"/>
      <point x="436" y="1373"/>
      <point x="436" y="1334" type="qcurve" smooth="yes"/>
      <point x="436" y="1310"/>
      <point x="409" y="1273.0"/>
      <point x="380" y="1273.0" type="qcurve" smooth="yes"/>
      <point x="350.0" y="1273.0"/>
      <point x="310" y="1298"/>
      <point x="310" y="1342" type="qcurve" smooth="yes"/>
      <point x="310" y="1404"/>
      <point x="431" y="1516"/>
      <point x="507" y="1538" type="qcurve"/>
    </contour>
    <contour>
      <point x="742" y="1531" type="line"/>
      <point x="694" y="1510"/>
      <point x="600.0" y="1426.0"/>
      <point x="594" y="1400" type="qcurve"/>
      <point x="619" y="1403"/>
      <point x="668" y="1373"/>
      <point x="668" y="1334" type="qcurve" smooth="yes"/>
      <point x="668" y="1310"/>
      <point x="641" y="1273.0"/>
      <point x="612" y="1273.0" type="qcurve" smooth="yes"/>
      <point x="582.0" y="1273.0"/>
      <point x="542" y="1298"/>
      <point x="542" y="1342" type="qcurve" smooth="yes"/>
      <point x="542" y="1404"/>
      <point x="663" y="1516"/>
      <point x="739" y="1538" type="qcurve"/>
    </contour>
  </outline>
</glyph>
<glyph name="dagger" format="2">
  <advance width="878"/>
  <unicode hex="2020"/>
  <outline>
    <contour>
      <point x="180" y="-480.0" type="line"/>
      <point x="272.0" y="-17.0" type="line"/>
      <point x="367" y="350.0" type="line"/>
      <point x="492" y="930.0" type="line"/>
      <point x="601.0" y="1480.0" type="line"/>
      <point x="616.0" y="1506.0" type="line"/>
      <point x="657.0" y="1506.0" type="line"/>
      <point x="663.0" y="1480.0" type="line"/>
      <point x="517" y="930.0" type="line"/>
      <point x="392" y="350.0" type="line"/>
      <point x="313.0" y="-18.0" type="line"/>
      <point x="198" y="-480.0" type="line"/>
    </contour>
    <contour>
      <point x="115.0" y="917" type="line"/>
      <point x="115.0" y="938.0" type="line"/>
      <point x="506.0" y="937.0" type="line"/>
      <point x="917.0" y="938.0" type="line"/>
      <point x="917.0" y="917" type="line"/>
      <point x="502.0" y="917" type="line"/>
    </contour>
  </outline>
</glyph>
<glyph name="minute" format="2">
  <advance width="509"/>
  <unicode hex="2032"/>
  <outline>
    <contour>
      <point x="219" y="1029.0" type="line"/>
      <point x="421" y="1383.0" type="line" smooth="yes"/>
      <point x="453" y="1439"/>
      <point x="483" y="1473"/>
      <point x="493" y="1467" type="qcurve" smooth="yes"/>
      <point x="506" y="1458.0"/>
      <point x="478" y="1404"/>
      <point x="454" y="1365.0" type="qcurve" smooth="yes"/>
      <point x="238" y="1021.0" type="line"/>
    </contour>
  </outline>
</glyph>
<glyph name="fraction" format="2">
  <advance width="359"/>
  <unicode hex="2044"/>
  <outline>
    <contour>
      <point x="-400" y="9" type="line"/>
      <point x="747" y="1498" type="line"/>
      <point x="762" y="1489.0" type="line"/>
      <point x="-384" y="0.0" type="line"/>
    </contour>
  </outline>
</glyph>
<glyph name="kip" format="2">
  <advance width="1085"/>
  <unicode hex="20AD"/>
  <outline>
    <contour>
      <point x="902" y="843" type="line"/>
      <point x="533" y="843" type="line"/>
      <point x="530" y="843" type="line"/>
      <point x="502" y="843" type="line"/>
      <point x="507" y="859" type="line"/>
      <point x="528" y="859" type="line"/>
      <point x="531" y="859" type="line"/>
      <point x="905" y="859" type="line"/>
    </contour>
    <contour>
      <point x="51" y="843" type="line"/>
      <point x="52" y="859" type="line"/>
      <point x="317" y="859" type="line"/>
      <point x="320" y="859" type="line"/>
      <point x="507" y="859" type="line"/>
      <point x="502" y="843" type="line"/>
      <point x="313" y="843" type="line"/>
      <point x="310" y="843" type="line"/>
    </contour>
    <contour>
      <point x="-75" y="0" type="line"/>
      <point x="-71" y="20" type="line"/>
      <point x="93" y="45" type="line"/>
      <point x="262" y="806" type="line"/>
      <point x="391" y="1452" type="line"/>
      <point x="238" y="1480" type="line"/>
      <point x="240" y="1500" type="line"/>
      <point x="656" y="1500" type="line"/>
      <point x="652" y="1480" type="line"/>
      <point x="476" y="1452" type="line"/>
      <point x="337" y="776" type="line"/>
      <point x="173" y="45" type="line"/>
      <point x="332" y="20" type="line"/>
      <point x="329" y="0" type="line"/>
    </contour>
    <contour>
      <point x="272" y="588" type="line"/>
      <point x="284" y="627" type="line"/>
      <point x="1054" y="1453" type="line"/>
      <point x="883" y="1480" type="line"/>
      <point x="886" y="1500" type="line"/>
      <point x="1290" y="1500" type="line"/>
      <point x="1286" y="1480" type="line"/>
      <point x="1103" y="1452" type="line"/>
    </contour>
    <contour>
      <point x="496" y="838" type="line"/>
      <point x="561" y="899" type="line"/>
      <point x="903" y="45" type="line"/>
      <point x="1030" y="21" type="line"/>
      <point x="1028" y="0" type="line"/>
      <point x="643" y="0" type="line"/>
      <point x="645" y="20" type="line"/>
      <point x="813" y="45" type="line"/>
    </contour>
  </outline>
</glyph>
<glyph name="peso" format="2">
  <advance width="1036"/>
  <unicode hex="20B1"/>
  <outline>
    <contour>
      <point x="1101" y="1047" type="line"/>
      <point x="989" y="1047" type="line"/>
      <point x="987" y="1047" type="line"/>
      <point x="797" y="1047" type="line"/>
      <point x="801" y="1063" type="line"/>
      <point x="997" y="1063" type="line"/>
      <point x="999" y="1063" type="line"/>
      <point x="1105" y="1063" type="line"/>
    </contour>
    <contour>
      <point x="202" y="1047" type="line"/>
      <point x="206" y="1063" type="line"/>
      <point x="387" y="1063" type="line"/>
      <point x="389" y="1063" type="line"/>
      <point x="814" y="1063" type="line"/>
      <point x="810" y="1047" type="line"/>
      <point x="384" y="1047" type="line"/>
      <point x="382" y="1047" type="line"/>
    </contour>
    <contour>
      <point x="1126" y="1209" type="line"/>
      <point x="1006" y="1209" type="line"/>
      <point x="1004" y="1209" type="line"/>
      <point x="842" y="1209" type="line"/>
      <point x="846" y="1225" type="line"/>
      <point x="1014" y="1225" type="line"/>
      <point x="1016" y="1225" type="line"/>
      <point x="1130" y="1225" type="line"/>
    </contour>
    <contour>
      <point x="234" y="1209" type="line"/>
      <point x="238" y="1225" type="line"/>
      <point x="419" y="1225" type="line"/>
      <point x="421" y="1225" type="line"/>
      <point x="846" y="1225" type="line"/>
      <point x="842" y="1209" type="line"/>
      <point x="416" y="1209" type="line"/>
      <point x="414" y="1209" type="line"/>
    </contour>
    <contour>
      <point x="-45" y="0" type="line"/>
      <point x="-42" y="20" type="line"/>
      <point x="117" y="47" type="line"/>
      <point x="277" y="754" type="line"/>
      <point x="426" y="1452" type="line"/>
      <point x="260" y="1480" type="line"/>
      <point x="263" y="1500" type="line"/>
      <point x="721" y="1500" type="line" smooth="yes"/>
      <point x="923" y="1501"/>
      <point x="1070" y="1296"/>
      <point x="1040" y="1108" type="qcurve" smooth="yes"/>
      <point x="1011" y="924"/>
      <point x="764" y="703"/>
      <point x="554" y="703" type="qcurve" smooth="yes"/>
      <point x="489" y="703"/>
      <point x="368" y="733"/>
      <point x="334" y="750" type="qcurve"/>
      <point x="334" y="781" type="line"/>
      <point x="374" y="758"/>
      <point x="497" y="731"/>
      <point x="549" y="731" type="qcurve" smooth="yes"/>
      <point x="694" y="731"/>
      <point x="918" y="874"/>
      <point x="960" y="1076" type="qcurve" smooth="yes"/>
      <point x="998" y="1263"/>
      <point x="856" y="1474"/>
      <point x="684" y="1474" type="qcurve" smooth="yes"/>
      <point x="537" y="1474" type="line"/>
      <point x="513" y="1457" type="line"/>
      <point x="364" y="764" type="line"/>
      <point x="204" y="41" type="line"/>
      <point x="393" y="20" type="line"/>
      <point x="389" y="0" type="line"/>
    </contour>
  </outline>
</glyph>
<glyph name="liraTurkish" format="2">
  <advance width="938"/>
  <unicode hex="20BA"/>
  <outline>
    <contour>
      <point x="79" y="628" type="line"/>
      <point x="73" y="646" type="line"/>
      <point x="362.0" y="758" type="line"/>
      <point x="377.0" y="764" type="line"/>
      <point x="677.0" y="880" type="line"/>
      <point x="676" y="862" type="line"/>
      <point x="377.0" y="747" type="line"/>
      <point x="364.0" y="742" type="line"/>
    </contour>
    <contour>
      <point x="102" y="813.0" type="line"/>
      <point x="95.0" y="830.0" type="line"/>
      <point x="388.0" y="937.0" type="line"/>
      <point x="409.0" y="945.0" type="line"/>
      <point x="712.0" y="1053.0" type="line"/>
      <point x="711" y="1035" type="line"/>
      <point x="415.0" y="930" type="line"/>
      <point x="401.0" y="925" type="line"/>
    </contour>
    <contour>
      <point x="194" y="14" type="line"/>
      <point x="220" y="-6" type="line"/>
      <point x="411" y="46"/>
      <point x="700" y="286"/>
      <point x="769" y="490.0" type="qcurve" smooth="yes"/>
      <point x="822" y="684.0" type="line"/>
      <point x="834.0" y="684.0" type="line"/>
      <point x="794.0" y="400.0" type="line"/>
      <point x="753.0" y="270.0"/>
      <point x="528.0" y="48.0"/>
      <point x="215.0" y="-27.0" type="qcurve"/>
      <point x="126.0" y="-29.0" type="line"/>
      <point x="105" y="-6" type="line"/>
      <point x="131" y="45" type="line"/>
      <point x="281.0" y="754.0" type="line"/>
      <point x="424" y="1451" type="line"/>
      <point x="270" y="1481" type="line"/>
      <point x="273.0" y="1500.0" type="line"/>
      <point x="678.0" y="1500.0" type="line"/>
      <point x="674" y="1481" type="line"/>
      <point x="513" y="1451" type="line"/>
      <point x="353.0" y="754.0" type="line"/>
    </contour>
  </outline>
</glyph>
<glyph name="minus" format="2">
  <advance width="879"/>
  <unicode hex="2212"/>
  <outline>
    <contour>
      <point x="18.0" y="616.0" type="line"/>
      <point x="18.0" y="648.0" type="line"/>
      <point x="781.0" y="648.0" type="line"/>
      <point x="781.0" y="616.0" type="line"/>
    </contour>
  </outline>
</glyph>
<glyph name="bulletoperator" format="2">
  <advance width="879"/>
  <unicode hex="2219"/>
  <outline>
    <contour>
      <point x="339.0" y="666.0" type="qcurve" smooth="yes"/>
      <point x="339.0" y="696.0"/>
      <point x="381.0" y="741.0"/>
      <point x="414.0" y="741.0" type="qcurve" smooth="yes"/>
      <point x="447.0" y="741.0"/>
      <point x="489.0" y="696.0"/>
      <point x="489.0" y="666.0" type="qcurve" smooth="yes"/>
      <point x="489.0" y="637.0"/>
      <point x="447.0" y="592.0"/>
      <point x="414.0" y="592.0" type="qcurve" smooth="yes"/>
      <point x="381.0" y="592.0"/>
      <point x="339.0" y="637.0"/>
    </contour>
  </outline>
</glyph>
<glyph name="f_f" format="2">
  <advance width="806"/>
  <unicode hex="FB00"/>
  <outline>
    <contour>
      <point x="-452" y="-454" type="line" smooth="yes"/>
      <point x="-451" y="-445" type="line"/>
      <point x="-354" y="-451" type="line" smooth="yes"/>
      <point x="-153" y="-458"/>
      <point x="8" y="-158"/>
      <point x="75" y="257" type="qcurve" smooth="yes"/>
      <point x="177" y="859" type="line"/>
      <point x="178" y="862" type="line"/>
      <point x="220" y="1107" type="line" smooth="yes"/>
      <point x="259" y="1335"/>
      <point x="423" y="1505"/>
      <point x="505" y="1505" type="qcurve" smooth="yes"/>
      <point x="564" y="1505"/>
      <point x="625" y="1448"/>
      <point x="625" y="1379" type="qcurve" smooth="yes"/>
      <point x="625" y="1333"/>
      <point x="596" y="1285"/>
      <point x="574" y="1285" type="qcurve" smooth="yes"/>
      <point x="562" y="1285"/>
      <point x="554" y="1299"/>
      <point x="543" y="1426" type="qcurve" smooth="yes"/>
      <point x="541" y="1455"/>
      <point x="525" y="1488"/>
      <point x="493" y="1488" type="qcurve" smooth="yes"/>
      <point x="433" y="1488"/>
      <point x="345" y="1339"/>
      <point x="283" y="1060" type="qcurve" smooth="yes"/>
      <point x="239" y="861" type="line"/>
      <point x="238" y="858" type="line"/>
      <point x="198" y="581" type="line" smooth="yes"/>
      <point x="118" y="29"/>
      <point x="-120" y="-479"/>
      <point x="-337" y="-479" type="qcurve"/>
    </contour>
    <contour>
      <point x="-22" y="-354" type="line" smooth="yes"/>
      <point x="-21" y="-345" type="line"/>
      <point x="76" y="-351" type="line" smooth="yes"/>
      <point x="277" y="-358"/>
      <point x="438" y="-58"/>
      <point x="505" y="357" type="qcurve" smooth="yes"/>
      <point x="592" y="869" type="line"/>
      <point x="593" y="874" type="line"/>
      <point x="650" y="1207" type="line" smooth="yes"/>
      <point x="679" y="1379"/>
      <point x="851" y="1550"/>
      <point x="946" y="1550" type="qcurve" smooth="yes"/>
      <point x="1015" y="1550"/>
      <point x="1086" y="1493"/>
      <point x="1086" y="1424" type="qcurve" smooth="yes"/>
      <point x="1086" y="1378"/>
      <point x="1052" y="1330"/>
      <point x="1026" y="1330" type="qcurve" smooth="yes"/>
      <point x="1013" y="1330"/>
      <point x="1003" y="1344"/>
      <point x="991" y="1471" type="qcurve" smooth="yes"/>
      <point x="988" y="1500"/>
      <point x="970" y="1533"/>
      <point x="932" y="1533" type="qcurve" smooth="yes"/>
      <point x="863" y="1533"/>
      <point x="759" y="1384"/>
      <point x="713" y="1160" type="qcurve" smooth="yes"/>
      <point x="654" y="872" type="line"/>
      <point x="653" y="868" type="line"/>
      <point x="628" y="681" type="line" smooth="yes"/>
      <point x="554" y="129"/>
      <point x="310" y="-379"/>
      <point x="93" y="-379" type="qcurve"/>
    </contour>
    <contour>
      <point x="8" y="842" type="line"/>
      <point x="9" y="856" type="line"/>
      <point x="187" y="867" type="line"/>
      <point x="845" y="882" type="line"/>
      <point x="845" y="867" type="line"/>
      <point x="212" y="851" type="line"/>
      <point x="186" y="847" type="line"/>
    </contour>
  </outline>
</glyph>
<glyph name="acutecomb.case" format="2">
  <advance width="896"/>
  <outline>
    <contour>
      <point x="429" y="1558" type="line"/>
      <point x="590" y="1726" type="line" smooth="yes"/>
      <point x="604" y="1741"/>
      <point x="634" y="1769"/>
      <point x="641" y="1769" type="qcurve" smooth="yes"/>
      <point x="647" y="1769"/>
      <point x="656" y="1761"/>
      <point x="656" y="1752" type="qcurve" smooth="yes"/>
      <point x="656" y="1744"/>
      <point x="633" y="1717"/>
      <point x="618" y="1704" type="qcurve" smooth="yes"/>
      <point x="438" y="1551" type="line"/>
    </contour>
  </outline>
</glyph>
<glyph name="brevebelowcomb.case" format="2">
  <advance width="896"/>
  <outline>
    <contour>
      <point x="447" y="-221" type="qcurve"/>
      <point x="455" y="-226" type="line"/>
      <point x="409" y="-327"/>
      <point x="274" y="-428"/>
      <point x="181" y="-428" type="qcurve" smooth="yes"/>
      <point x="92" y="-428"/>
      <point x="-4" y="-330"/>
      <point x="-4" y="-213" type="qcurve"/>
      <point x="4" y="-210" type="line"/>
      <point x="22" y="-330"/>
      <point x="122" y="-398"/>
      <point x="187" y="-398" type="qcurve" smooth="yes"/>
      <point x="257" y="-398"/>
      <point x="392" y="-324"/>
    </contour>
  </outline>
</glyph>
<glyph name="brevecomb.case" format="2">
  <advance width="896"/>
  <outline>
    <contour>
      <point x="857" y="1805" type="qcurve"/>
      <point x="865" y="1800" type="line"/>
      <point x="819" y="1699"/>
      <point x="684" y="1598"/>
      <point x="591" y="1598" type="qcurve" smooth="yes"/>
      <point x="502" y="1598"/>
      <point x="406" y="1696"/>
      <point x="406" y="1813" type="qcurve"/>
      <point x="414" y="1816" type="line"/>
      <point x="432" y="1696"/>
      <point x="532" y="1628"/>
      <point x="597" y="1628" type="qcurve" smooth="yes"/>
      <point x="667" y="1628"/>
      <point x="802" y="1702"/>
    </contour>
  </outline>
</glyph>
<glyph name="caroncomb.alt" format="2">
  <advance width="896"/>
  <outline>
    <contour>
      <point x="464" y="1054" type="line"/>
      <point x="594" y="1412" type="line" smooth="yes"/>
      <point x="615" y="1469"/>
      <point x="637" y="1490"/>
      <point x="648.0" y="1490" type="qcurve" smooth="yes"/>
      <point x="655.0" y="1490.0"/>
      <point x="664.0" y="1480"/>
      <point x="664.0" y="1469" type="qcurve" smooth="yes"/>
      <point x="664.0" y="1463"/>
      <point x="659" y="1441"/>
      <point x="648.0" y="1418" type="qcurve" smooth="yes"/>
      <point x="476.0" y="1048" type="line"/>
    </contour>
  </outline>
</glyph>
<glyph name="caroncomb.case" format="2">
  <advance width="896"/>
  <outline>
    <contour>
      <point x="584" y="1605" type="qcurve" smooth="yes"/>
      <point x="577" y="1608"/>
      <point x="558" y="1651"/>
      <point x="540" y="1691" type="qcurve" smooth="yes"/>
      <point x="457" y="1879" type="line"/>
      <point x="466" y="1886" type="line"/>
      <point x="600" y="1661" type="line"/>
      <point x="899" y="1881" type="line"/>
      <point x="908" y="1874" type="line"/>
      <point x="685" y="1686" type="line" smooth="yes"/>
      <point x="632" y="1641"/>
      <point x="590" y="1602"/>
    </contour>
  </outline>
</glyph>
<glyph name="circumflexcomb.case" format="2">
  <advance width="896"/>
  <outline>
    <contour>
      <point x="547" y="1822" type="qcurve" smooth="yes"/>
      <point x="554" y="1819"/>
      <point x="573" y="1776"/>
      <point x="591" y="1736" type="qcurve" smooth="yes"/>
      <point x="674" y="1548" type="line"/>
      <point x="665" y="1541" type="line"/>
      <point x="531" y="1766" type="line"/>
      <point x="232" y="1546" type="line"/>
      <point x="223" y="1553" type="line"/>
      <point x="446" y="1741" type="line" smooth="yes"/>
      <point x="499" y="1786"/>
      <point x="541" y="1825"/>
    </contour>
  </outline>
</glyph>
<glyph name="commaaccentcomb.case" format="2">
  <advance width="896"/>
  <outline>
    <contour>
      <point x="156.83098591549296" y="-454.14084507042253" type="qcurve"/>
      <point x="166.0" y="-468.0" type="line"/>
      <point x="264.0" y="-407.0"/>
      <point x="370.0" y="-300.0"/>
      <point x="370.0" y="-234.0" type="qcurve" smooth="yes"/>
      <point x="371.0" y="-207.0"/>
      <point x="341.0" y="-182.0"/>
      <point x="310.0" y="-182.0" type="qcurve" smooth="yes"/>
      <point x="282.0" y="-182.0"/>
      <point x="243.0" y="-220.0"/>
      <point x="243.0" y="-252.0" type="qcurve" smooth="yes"/>
      <point x="243.0" y="-279.0"/>
      <point x="279.28169014084506" y="-313.943661971831"/>
      <point x="301.1267605633803" y="-315.63380281690144" type="qcurve"/>
      <point x="291.46478873239437" y="-341.90140845070425"/>
      <point x="225.83098591549296" y="-407.14084507042253"/>
    </contour>
  </outline>
</glyph>
<glyph name="dieresisbelowcomb.case" format="2">
  <advance width="896"/>
  <outline>
    <contour>
      <point x="134.0" y="-189.0" type="qcurve" smooth="yes"/>
      <point x="134.0" y="-163.0"/>
      <point x="174.0" y="-124.0"/>
      <point x="201.0" y="-124.0" type="qcurve" smooth="yes"/>
      <point x="230.0" y="-124.0"/>
      <point x="267.0" y="-161.0"/>
      <point x="267.0" y="-189.0" type="qcurve" smooth="yes"/>
      <point x="267.0" y="-216.0"/>
      <point x="228.0" y="-254.0"/>
      <point x="201.0" y="-254.0" type="qcurve" smooth="yes"/>
      <point x="172.0" y="-254.0"/>
      <point x="134.0" y="-217.0"/>
    </contour>
    <contour>
      <point x="306.0" y="-189.0" type="qcurve" smooth="yes"/>
      <point x="306.0" y="-163.0"/>
      <point x="344.0" y="-124.0"/>
      <point x="371.0" y="-124.0" type="qcurve" smooth="yes"/>
      <point x="400.0" y="-124.0"/>
      <point x="438.0" y="-161.0"/>
      <point x="438.0" y="-189.0" type="qcurve" smooth="yes"/>
      <point x="438.0" y="-216.0"/>
      <point x="398.0" y="-254.0"/>
      <point x="371.0" y="-254.0" type="qcurve" smooth="yes"/>
      <point x="342.0" y="-254.0"/>
      <point x="306.0" y="-217.0"/>
    </contour>
  </outline>
</glyph>
<glyph name="dieresisbelowcomb" format="2">
  <advance width="896"/>
  <outline>
    <contour>
      <point x="301.0" y="-187.0" type="qcurve" smooth="yes"/>
      <point x="301.0" y="-161.0"/>
      <point x="339.0" y="-122.0"/>
      <point x="366.0" y="-122.0" type="qcurve" smooth="yes"/>
      <point x="395.0" y="-122.0"/>
      <point x="433.0" y="-159.0"/>
      <point x="433.0" y="-187.0" type="qcurve" smooth="yes"/>
      <point x="433.0" y="-214.0"/>
      <point x="393.0" y="-252.0"/>
      <point x="366.0" y="-252.0" type="qcurve" smooth="yes"/>
      <point x="337.0" y="-252.0"/>
      <point x="301.0" y="-215.0"/>
    </contour>
    <contour>
      <point x="89.0" y="-187.0" type="qcurve" smooth="yes"/>
      <point x="89.0" y="-161.0"/>
      <point x="129.0" y="-122.0"/>
      <point x="156.0" y="-122.0" type="qcurve" smooth="yes"/>
      <point x="185.0" y="-122.0"/>
      <point x="222.0" y="-159.0"/>
      <point x="222.0" y="-187.0" type="qcurve" smooth="yes"/>
      <point x="222.0" y="-214.0"/>
      <point x="183.0" y="-252.0"/>
      <point x="156.0" y="-252.0" type="qcurve" smooth="yes"/>
      <point x="127.0" y="-252.0"/>
      <point x="89.0" y="-215.0"/>
    </contour>
  </outline>
</glyph>
<glyph name="dotaccentcombstack.case" format="2">
  <advance width="896"/>
  <outline>
    <contour>
      <point x="542.0" y="1670.0" type="qcurve" smooth="yes"/>
      <point x="542.0" y="1702.0"/>
      <point x="572.0" y="1733.0"/>
      <point x="606.0" y="1733.0" type="qcurve" smooth="yes"/>
      <point x="638.0" y="1733.0"/>
      <point x="670.0" y="1700.0"/>
      <point x="670.0" y="1670.0" type="qcurve" smooth="yes"/>
      <point x="670.0" y="1641.0"/>
      <point x="644.0" y="1606.0"/>
      <point x="606.0" y="1606.0" type="qcurve" smooth="yes"/>
      <point x="576.0" y="1606.0"/>
      <point x="542.0" y="1641.0"/>
    </contour>
  </outline>
</glyph>
<glyph name="dotbelowcomb.case" format="2">
  <advance width="896"/>
  <outline>
    <contour>
      <point x="230.0" y="-214.0" type="qcurve" smooth="yes"/>
      <point x="230.0" y="-178.0"/>
      <point x="256.0" y="-151.0"/>
      <point x="293.0" y="-151.0" type="qcurve" smooth="yes"/>
      <point x="324.0" y="-151.0"/>
      <point x="356.0" y="-185.0"/>
      <point x="356.0" y="-214.0" type="qcurve" smooth="yes"/>
      <point x="356.0" y="-249.0"/>
      <point x="330.0" y="-276.0"/>
      <point x="293.0" y="-276.0" type="qcurve" smooth="yes"/>
      <point x="263.0" y="-276.0"/>
      <point x="230.0" y="-243.0"/>
    </contour>
  </outline>
</glyph>
<glyph name="dotbelowcomb" format="2">
  <advance width="896"/>
  <outline>
    <contour>
      <point x="189.0" y="-213.0" type="qcurve" smooth="yes"/>
      <point x="189.0" y="-189.0"/>
      <point x="225.0" y="-150.0"/>
      <point x="253.0" y="-150.0" type="qcurve" smooth="yes"/>
      <point x="282.0" y="-150.0"/>
      <point x="323.0" y="-190.0"/>
      <point x="323.0" y="-219.0" type="qcurve" smooth="yes"/>
      <point x="323.0" y="-241.0"/>
      <point x="286.0" y="-279.0"/>
      <point x="258.0" y="-279.0" type="qcurve" smooth="yes"/>
      <point x="230.0" y="-279.0"/>
      <point x="189.0" y="-241.0"/>
    </contour>
  </outline>
</glyph>
<glyph name="eight.lc" format="2">
  <advance width="1015"/>
  <outline>
    <contour>
      <point x="76.0" y="274" type="qcurve" smooth="yes"/>
      <point x="76.0" y="423"/>
      <point x="362.0" y="665"/>
      <point x="563.0" y="745" type="qcurve"/>
      <point x="575.0" y="726" type="line"/>
      <point x="381.0" y="645"/>
      <point x="145" y="422"/>
      <point x="145.0" y="264" type="qcurve" smooth="yes"/>
      <point x="145" y="142"/>
      <point x="309" y="7"/>
      <point x="443.0" y="7" type="qcurve" smooth="yes"/>
      <point x="630" y="7"/>
      <point x="852.0" y="201"/>
      <point x="852.0" y="327" type="qcurve" smooth="yes"/>
      <point x="852" y="447"/>
      <point x="710" y="622"/>
      <point x="599.0" y="699" type="qcurve" smooth="yes"/>
      <point x="487" y="777"/>
      <point x="331" y="956"/>
      <point x="331.0" y="1063" type="qcurve" smooth="yes"/>
      <point x="331" y="1176"/>
      <point x="540" y="1360"/>
      <point x="715.0" y="1357" type="qcurve" smooth="yes"/>
      <point x="840" y="1355"/>
      <point x="991.0" y="1223"/>
      <point x="991.0" y="1123" type="qcurve" smooth="yes"/>
      <point x="991" y="1009"/>
      <point x="804.0" y="833"/>
      <point x="613.0" y="744" type="qcurve"/>
      <point x="596.0" y="757" type="line"/>
      <point x="769.0" y="842"/>
      <point x="934" y="1011"/>
      <point x="934.0" y="1110" type="qcurve" smooth="yes"/>
      <point x="934.0" y="1216"/>
      <point x="802" y="1333"/>
      <point x="699.0" y="1332" type="qcurve" smooth="yes"/>
      <point x="554" y="1331"/>
      <point x="389" y="1176"/>
      <point x="389.0" y="1075" type="qcurve" smooth="yes"/>
      <point x="389.0" y="969.0"/>
      <point x="536" y="816"/>
      <point x="643.0" y="740" type="qcurve" smooth="yes"/>
      <point x="755.0" y="661"/>
      <point x="914" y="466"/>
      <point x="914.0" y="343" type="qcurve" smooth="yes"/>
      <point x="914.0" y="203"/>
      <point x="663" y="-19"/>
      <point x="438.0" y="-19.0" type="qcurve" smooth="yes"/>
      <point x="258.0" y="-19.0"/>
      <point x="76.0" y="138"/>
    </contour>
  </outline>
</glyph>
<glyph name="eight.lf" format="2">
  <advance width="1035"/>
  <outline>
    <contour>
      <point x="37" y="331" type="qcurve" smooth="yes"/>
      <point x="37" y="499"/>
      <point x="295" y="753"/>
      <point x="533" y="848" type="qcurve"/>
      <point x="549" y="837" type="line"/>
      <point x="347" y="751"/>
      <point x="109" y="491"/>
      <point x="109" y="342" type="qcurve" smooth="yes"/>
      <point x="109" y="180"/>
      <point x="265" y="7"/>
      <point x="435" y="7" type="qcurve" smooth="yes"/>
      <point x="605" y="7"/>
      <point x="853" y="214"/>
      <point x="853" y="381" type="qcurve" smooth="yes"/>
      <point x="853" y="518"/>
      <point x="658" y="746"/>
      <point x="534" y="842" type="qcurve" smooth="yes"/>
      <point x="406" y="945"/>
      <point x="302" y="1085"/>
      <point x="302" y="1189" type="qcurve" smooth="yes"/>
      <point x="302" y="1332"/>
      <point x="497" y="1533"/>
      <point x="674" y="1533" type="qcurve" smooth="yes"/>
      <point x="799" y="1533"/>
      <point x="942" y="1391"/>
      <point x="942" y="1282" type="qcurve" smooth="yes"/>
      <point x="942" y="1132"/>
      <point x="756" y="942"/>
      <point x="565" y="842" type="qcurve"/>
      <point x="571" y="858" type="line"/>
      <point x="730" y="962"/>
      <point x="881" y="1151"/>
      <point x="881" y="1252" type="qcurve" smooth="yes"/>
      <point x="881" y="1357"/>
      <point x="760" y="1520"/>
      <point x="652" y="1520" type="qcurve" smooth="yes"/>
      <point x="517" y="1520"/>
      <point x="348" y="1333"/>
      <point x="348" y="1189" type="qcurve" smooth="yes"/>
      <point x="348" y="1087"/>
      <point x="511" y="921"/>
      <point x="639" y="809" type="qcurve" smooth="yes"/>
      <point x="759" y="704"/>
      <point x="897" y="520"/>
      <point x="897" y="372" type="qcurve" smooth="yes"/>
      <point x="897" y="202"/>
      <point x="642" y="-4"/>
      <point x="410" y="-4" type="qcurve" smooth="yes"/>
      <point x="224" y="-4"/>
      <point x="37" y="178"/>
    </contour>
  </outline>
</glyph>
<glyph name="engtail" format="2">
  <advance width="938"/>
  <outline>
    <contour>
      <point x="-17.394366197183096" y="-269.77464788732397" type="qcurve"/>
      <point x="-8.28169014084507" y="-247.45070422535213" type="line"/>
      <point x="15.71830985915493" y="-283.4507042253521"/>
      <point x="79.35211267605634" y="-323.15492957746477"/>
      <point x="120.35211267605634" y="-323.15492957746477" type="qcurve" smooth="yes"/>
      <point x="203.35211267605635" y="-323.15492957746477"/>
      <point x="301.0281690140845" y="-263.23943661971833"/>
      <point x="318.71830985915494" y="-178.45070422535213" type="qcurve" smooth="yes"/>
      <point x="380.0" y="134.0" type="line"/>
      <point x="418.0" y="162.0" type="line"/>
      <point x="441.0" y="162.0" type="line"/>
      <point x="390.67605633802816" y="-119.0" type="line" smooth="yes"/>
      <point x="363.67605633802816" y="-256.0"/>
      <point x="250.67605633802816" y="-356.36619718309856"/>
      <point x="145.67605633802816" y="-356.36619718309856" type="qcurve" smooth="yes"/>
      <point x="70.54929577464789" y="-356.36619718309856"/>
      <point x="5.661971830985916" y="-310.77464788732397"/>
    </contour>
  </outline>
</glyph>
<glyph name="gravecomb.case" format="2">
  <advance width="896"/>
  <outline>
    <contour>
      <point x="465" y="1728" type="line" smooth="yes"/>
      <point x="450" y="1741"/>
      <point x="427" y="1768"/>
      <point x="427" y="1776" type="qcurve" smooth="yes"/>
      <point x="427" y="1785"/>
      <point x="436" y="1793"/>
      <point x="442" y="1793" type="qcurve" smooth="yes"/>
      <point x="449" y="1793"/>
      <point x="479" y="1765"/>
      <point x="493" y="1750" type="qcurve" smooth="yes"/>
      <point x="654" y="1582" type="line"/>
      <point x="645" y="1575" type="line"/>
    </contour>
  </outline>
</glyph>
<glyph name="gravecombstack.case" format="2">
  <advance width="896"/>
  <outline>
    <contour>
      <point x="429" y="1786" type="qcurve" smooth="yes"/>
      <point x="429" y="1795"/>
      <point x="438" y="1803"/>
      <point x="444" y="1803" type="qcurve" smooth="yes"/>
      <point x="451" y="1803"/>
      <point x="481" y="1775"/>
      <point x="495" y="1760" type="qcurve" smooth="yes"/>
      <point x="636" y="1609" type="line"/>
      <point x="627" y="1602" type="line"/>
      <point x="467" y="1738" type="line" smooth="yes"/>
      <point x="452" y="1751"/>
      <point x="429" y="1778"/>
    </contour>
  </outline>
</glyph>
<glyph name="hookabovecomb.case" format="2">
  <advance width="845"/>
  <outline>
    <contour>
      <point x="511" y="1636" type="line"/>
      <point x="537" y="1747" type="line"/>
      <point x="548" y="1749" type="line"/>
      <point x="570" y="1745"/>
      <point x="622" y="1738"/>
      <point x="653" y="1738" type="qcurve" smooth="yes"/>
      <point x="751" y="1738"/>
      <point x="829" y="1793"/>
      <point x="836" y="1855" type="qcurve" smooth="yes"/>
      <point x="842" y="1905"/>
      <point x="766.0" y="1959.0"/>
      <point x="709" y="1959.0" type="qcurve" smooth="yes"/>
      <point x="659" y="1959"/>
      <point x="568" y="1937"/>
      <point x="542" y="1925" type="qcurve"/>
      <point x="539" y="1935" type="line"/>
      <point x="559" y="1947"/>
      <point x="673" y="1979"/>
      <point x="742" y="1979.0" type="qcurve" smooth="yes"/>
      <point x="803" y="1979.0"/>
      <point x="889" y="1921"/>
      <point x="883" y="1855" type="qcurve" smooth="yes"/>
      <point x="877" y="1785"/>
      <point x="760" y="1711"/>
      <point x="665" y="1711" type="qcurve" smooth="yes"/>
      <point x="642" y="1711"/>
      <point x="573" y="1718"/>
      <point x="547" y="1724" type="qcurve"/>
      <point x="529" y="1636" type="line"/>
    </contour>
  </outline>
</glyph>
<glyph name="hornU" format="2">
  <advance width="1214"/>
  <outline>
    <contour>
      <point x="181" y="1480" type="line"/>
      <point x="184" y="1500" type="line"/>
      <point x="583" y="1500" type="line"/>
      <point x="580" y="1480" type="line"/>
      <point x="416" y="1452" type="line"/>
      <point x="276" y="794" type="line" smooth="yes"/>
      <point x="251" y="676"/>
      <point x="181" y="319"/>
      <point x="181" y="244" type="qcurve" smooth="yes"/>
      <point x="181" y="120"/>
      <point x="350" y="-5"/>
      <point x="512" y="-5" type="qcurve" smooth="yes"/>
      <point x="674" y="-5"/>
      <point x="879" y="223"/>
      <point x="920" y="417" type="qcurve" smooth="yes"/>
      <point x="999" y="794" type="line"/>
      <point x="1128" y="1452" type="line"/>
      <point x="923" y="1480" type="line"/>
      <point x="926" y="1500" type="line"/>
      <point x="1157" y="1500" type="line"/>
      <point x="1018" y="794" type="line"/>
      <point x="941" y="425" type="line" smooth="yes"/>
      <point x="897" y="216"/>
      <point x="683" y="-25"/>
      <point x="491" y="-25" type="qcurve" smooth="yes"/>
      <point x="284" y="-25"/>
      <point x="114" y="144"/>
      <point x="114" y="259" type="qcurve" smooth="yes"/>
      <point x="114" y="338"/>
      <point x="176" y="683"/>
      <point x="199" y="794" type="qcurve" smooth="yes"/>
      <point x="333" y="1452" type="line"/>
    </contour>
  </outline>
</glyph>
<glyph name="horncomb.case" format="2">
  <advance width="896"/>
  <outline>
    <contour>
      <point x="216" y="1480" type="line"/>
      <point x="288" y="1480"/>
      <point x="270" y="1480"/>
      <point x="309" y="1480" type="qcurve" smooth="yes"/>
      <point x="395" y="1480"/>
      <point x="475" y="1567"/>
      <point x="475" y="1669" type="qcurve" smooth="yes"/>
      <point x="475" y="1690"/>
      <point x="471" y="1721"/>
      <point x="468" y="1737" type="qcurve"/>
      <point x="483" y="1737" type="line"/>
      <point x="491" y="1724"/>
      <point x="506" y="1661"/>
      <point x="506" y="1623" type="qcurve" smooth="yes"/>
      <point x="506" y="1544"/>
      <point x="424" y="1450"/>
      <point x="346" y="1450" type="qcurve" smooth="yes"/>
      <point x="316" y="1450"/>
      <point x="229" y="1460"/>
      <point x="216" y="1465" type="qcurve"/>
    </contour>
  </outline>
</glyph>
<glyph name="macronbelowcomb.case" format="2">
  <advance width="896"/>
  <outline>
    <contour>
      <point x="-4.04225352112676" y="-276.23943661971833" type="line"/>
      <point x="8.0" y="-222.0" type="line"/>
      <point x="500.0" y="-222.0" type="line"/>
      <point x="487.9577464788732" y="-276.23943661971833" type="line"/>
    </contour>
  </outline>
</glyph>
<glyph name="macroncombstack.case" format="2">
  <advance width="896"/>
  <outline>
    <contour>
      <point x="305.0" y="1672.0" type="line"/>
      <point x="314.0" y="1709.0" type="line"/>
      <point x="806.0" y="1709.0" type="line"/>
      <point x="797.0" y="1672.0" type="line"/>
    </contour>
  </outline>
</glyph>
<glyph name="ogonekcomb.case" format="2">
  <advance width="896"/>
  <outline>
    <contour>
      <point x="201" y="-258" type="qcurve" smooth="yes"/>
      <point x="191" y="-320"/>
      <point x="265" y="-391"/>
      <point x="323" y="-391" type="qcurve" smooth="yes"/>
      <point x="382" y="-391"/>
      <point x="511" y="-306"/>
      <point x="551" y="-249" type="qcurve"/>
      <point x="558" y="-253" type="line"/>
      <point x="521" y="-313"/>
      <point x="383" y="-403"/>
      <point x="323" y="-404" type="qcurve" smooth="yes"/>
      <point x="235" y="-405"/>
      <point x="159" y="-326"/>
      <point x="169" y="-267" type="qcurve" smooth="yes"/>
      <point x="182" y="-193"/>
      <point x="318" y="-61"/>
      <point x="394" y="-12" type="qcurve" smooth="yes"/>
      <point x="422" y="6" type="line"/>
      <point x="433" y="-5" type="line"/>
      <point x="410" y="-20" type="line" smooth="yes"/>
      <point x="318" y="-80"/>
      <point x="212" y="-192"/>
    </contour>
  </outline>
</glyph>
<glyph name="ringcomb.case" format="2">
  <advance width="896"/>
  <outline>
    <contour>
      <point x="403.0" y="1776.0" type="qcurve" smooth="yes"/>
      <point x="403.0" y="1846.0"/>
      <point x="509.0" y="1958.0"/>
      <point x="581.0" y="1958.0" type="qcurve" smooth="yes"/>
      <point x="653.0" y="1958.0"/>
      <point x="758.0" y="1846.0"/>
      <point x="758.0" y="1776.0" type="qcurve" smooth="yes"/>
      <point x="758.0" y="1698.0"/>
      <point x="653.0" y="1595.0"/>
      <point x="581.0" y="1595.0" type="qcurve" smooth="yes"/>
      <point x="509.0" y="1595.0"/>
      <point x="403.0" y="1698.0"/>
    </contour>
    <contour>
      <point x="429.0" y="1776.0" type="qcurve" smooth="yes"/>
      <point x="429.0" y="1709.0"/>
      <point x="513.0" y="1615.0"/>
      <point x="581.0" y="1615.0" type="qcurve" smooth="yes"/>
      <point x="649.0" y="1615.0"/>
      <point x="733.0" y="1709.0"/>
      <point x="733.0" y="1776.0" type="qcurve" smooth="yes"/>
      <point x="733.0" y="1844.0"/>
      <point x="649.0" y="1938.0"/>
      <point x="581.0" y="1938.0" type="qcurve" smooth="yes"/>
      <point x="513.0" y="1938.0"/>
      <point x="429.0" y="1844.0"/>
    </contour>
  </outline>
</glyph>
<glyph name="six.lf" format="2">
  <advance width="994"/>
  <outline>
    <contour>
      <point x="54" y="471" type="qcurve" smooth="yes"/>
      <point x="81" y="850"/>
      <point x="607" y="1431"/>
      <point x="962" y="1551" type="qcurve"/>
      <point x="966" y="1535" type="line"/>
      <point x="665" y="1421"/>
      <point x="140" y="829"/>
      <point x="113" y="446" type="qcurve" smooth="yes"/>
      <point x="100" y="229"/>
      <point x="269" y="7"/>
      <point x="416" y="7" type="qcurve" smooth="yes"/>
      <point x="580" y="7"/>
      <point x="842" y="322"/>
      <point x="858" y="520" type="qcurve" smooth="yes"/>
      <point x="868" y="657"/>
      <point x="721" y="833"/>
      <point x="586" y="833" type="qcurve" smooth="yes"/>
      <point x="527" y="833"/>
      <point x="446" y="804"/>
      <point x="401" y="777" type="qcurve"/>
      <point x="392" y="786" type="line"/>
      <point x="437" y="814"/>
      <point x="609" y="885"/>
      <point x="633" y="886" type="qcurve" smooth="yes"/>
      <point x="756" y="888"/>
      <point x="914" y="686"/>
      <point x="904" y="519" type="qcurve" smooth="yes"/>
      <point x="891" y="293"/>
      <point x="603" y="-14"/>
      <point x="401" y="-14" type="qcurve" smooth="yes"/>
      <point x="221" y="-14"/>
      <point x="38" y="240"/>
    </contour>
  </outline>
</glyph>
<glyph name="three.tab" format="2">
  <advance width="1000"/>
  <outline>
    <contour>
      <point x="6.0" y="228" type="qcurve" smooth="yes"/>
      <point x="6.0" y="263"/>
      <point x="38" y="318"/>
      <point x="54.0" y="318" type="qcurve"/>
      <point x="62.0" y="317" type="line"/>
      <point x="60" y="302"/>
      <point x="58.0" y="269"/>
      <point x="58.0" y="214" type="qcurve" smooth="yes"/>
      <point x="58.0" y="135"/>
      <point x="188" y="18"/>
      <point x="343" y="18.0" type="qcurve" smooth="yes"/>
      <point x="538" y="18"/>
      <point x="789.0" y="254"/>
      <point x="789.0" y="447" type="qcurve" smooth="yes"/>
      <point x="789.0" y="625.0"/>
      <point x="587.0" y="823"/>
      <point x="428.0" y="820" type="qcurve" smooth="yes"/>
      <point x="326.0" y="820" type="line"/>
      <point x="326.0" y="833" type="line"/>
      <point x="400.0" y="833" type="line" smooth="yes"/>
      <point x="574" y="833.0"/>
      <point x="841" y="1056"/>
      <point x="841.0" y="1216" type="qcurve" smooth="yes"/>
      <point x="841.0" y="1343"/>
      <point x="697" y="1467"/>
      <point x="578" y="1467" type="qcurve" smooth="yes"/>
      <point x="448" y="1467"/>
      <point x="296" y="1360"/>
      <point x="224" y="1251" type="qcurve"/>
      <point x="218.0" y="1259.0" type="line"/>
      <point x="277.0" y="1370.0"/>
      <point x="447.0" y="1514.0"/>
      <point x="585.0" y="1514.0" type="qcurve" smooth="yes"/>
      <point x="734.0" y="1514.0"/>
      <point x="898.0" y="1371.0"/>
      <point x="898.0" y="1240.0" type="qcurve" smooth="yes"/>
      <point x="898.0" y="1091.0"/>
      <point x="684" y="881.0"/>
      <point x="516" y="834.0" type="qcurve"/>
      <point x="515" y="827.0" type="line"/>
      <point x="676" y="799.0"/>
      <point x="846.0" y="617"/>
      <point x="846.0" y="463" type="qcurve" smooth="yes"/>
      <point x="846" y="279"/>
      <point x="564.0" y="-1.0"/>
      <point x="352.0" y="-1.0" type="qcurve" smooth="yes"/>
      <point x="177.0" y="-1.0"/>
      <point x="6.0" y="141"/>
    </contour>
  </outline>
</glyph>
